<svg width="22" height="22" viewBox="0 0 22 22" fill="none" xmlns="http://www.w3.org/2000/svg">
<path d="M11 0C8.82441 0 6.69767 0.645139 4.88873 1.85383C3.07979 3.06253 1.66989 4.78049 0.83733 6.79048C0.00476611 8.80047 -0.213071 11.0122 0.211367 13.146C0.635804 15.2798 1.68345 17.2398 3.22183 18.7782C4.76021 20.3165 6.72022 21.3642 8.85401 21.7886C10.9878 22.2131 13.1995 21.9952 15.2095 21.1627C17.2195 20.3301 18.9375 18.9202 20.1462 17.1113C21.3549 15.3023 22 13.1756 22 11C22 8.08262 20.8411 5.28472 18.7782 3.22182C16.7153 1.15893 13.9174 0 11 0ZM19.1331 9.625H15.7781C15.7083 7.58178 15.34 5.55976 14.685 3.62312C15.8453 4.2044 16.8526 5.05057 17.6253 6.09323C18.3981 7.13588 18.9146 8.34575 19.1331 9.625ZM11 19.25C10.4638 19.03 9.20563 16.7028 8.97532 12.375H13.0247C12.7944 16.6994 11.5363 19.0266 11 19.25ZM8.97532 9.625C9.20219 5.30062 10.4603 2.97344 11 2.75C11.5363 2.97 12.7944 5.29719 13.0247 9.625H8.97532ZM7.315 3.62312C6.65999 5.55976 6.29172 7.58178 6.22188 9.625H2.86688C3.08543 8.34575 3.60195 7.13588 4.37468 6.09323C5.14742 5.05057 6.15467 4.2044 7.315 3.62312ZM2.86688 12.375H6.22188C6.29172 14.4182 6.65999 16.4402 7.315 18.3769C6.15467 17.7956 5.14742 16.9494 4.37468 15.9068C3.60195 14.8641 3.08543 13.6542 2.86688 12.375ZM14.685 18.3769C15.34 16.4402 15.7083 14.4182 15.7781 12.375H19.1331C18.9146 13.6542 18.3981 14.8641 17.6253 15.9068C16.8526 16.9494 15.8453 17.7956 14.685 18.3769Z" fill="#606870"/>
</svg>
