<svg width="1440" height="1024" viewBox="0 0 1440 1024" fill="none" xmlns="http://www.w3.org/2000/svg">
<g opacity="0.2" clip-path="url(#clip0_1673:11168)">
<g opacity="0.7">
<path d="M804.578 2.73067H915.52C917.433 4.096 918.07 5.46133 918.708 6.82667C920.621 12.288 922.534 17.7493 924.446 23.2107C930.185 40.2773 936.561 58.7093 941.024 76.4587C943.574 87.3813 946.125 98.304 948.675 108.544C950.588 116.053 951.863 122.88 953.776 130.389C958.877 152.917 967.803 170.667 981.83 186.368C985.656 190.464 989.482 194.56 993.307 199.339C999.683 206.165 1006.06 212.992 1011.8 219.819C1029.01 242.347 1038.58 269.653 1041.76 304.469L1042.4 311.979C1043.68 329.728 1045.59 348.16 1048.78 365.909C1055.79 406.187 1060.89 447.829 1063.44 493.568C1064.08 505.856 1065.99 521.557 1071.09 536.576C1078.11 555.691 1090.22 567.979 1106.8 571.392C1111.26 572.075 1115.09 572.757 1119.55 572.757C1132.94 572.757 1145.69 567.979 1157.81 557.739C1175.02 544.085 1187.14 523.605 1196.06 496.299C1203.72 473.088 1204.35 448.512 1204.99 427.349C1205.63 410.965 1206.27 393.899 1208.82 376.832C1214.55 339.968 1230.49 309.248 1256 286.72C1265.56 277.845 1276.4 270.336 1286.6 262.827L1293.62 257.365C1336.97 225.28 1331.24 169.984 1326.77 148.139C1325.5 141.995 1322.31 137.216 1319.12 132.437C1310.19 120.149 1297.44 116.736 1285.97 115.371C1277.04 114.005 1267.48 114.005 1261.1 114.005C1257.27 114.005 1254.09 114.005 1250.26 114.005C1246.43 114.005 1243.25 114.005 1239.42 114.005C1237.51 114.005 1235.6 114.005 1233.68 114.005C1223.48 114.005 1215.19 112.64 1206.9 110.592C1173.11 101.035 1143.78 80.5547 1117 47.7867C1108.71 37.5467 1101.7 23.8933 1095.32 6.82667C1094.05 4.096 1094.05 2.73067 1094.69 2.048H1146.97C1148.88 3.41333 1150.16 5.46133 1151.43 8.192C1159.72 25.2587 1168.65 38.2293 1178.85 47.7867C1199.25 66.2187 1223.48 75.0933 1254.09 75.0933C1259.19 75.0933 1264.92 75.0933 1270.66 74.4107C1286.6 73.0453 1303.18 71.68 1319.76 69.632C1330.6 68.2667 1341.44 66.9013 1352.28 64.1707C1361.84 61.44 1367.58 55.296 1371.4 45.056C1374.59 36.1813 1376.5 25.9413 1378.42 12.9707V10.9227C1378.42 7.50933 1379.06 4.77867 1380.97 2.73067H1430.06C1431.98 4.096 1433.25 6.144 1434.53 8.192C1442.18 19.7973 1450.47 27.3067 1460.03 32.0853C1468.96 36.1813 1478.52 38.912 1487.45 41.6427H1488.08C1491.27 42.3253 1493.82 43.008 1497.01 44.3733C1508.49 47.7867 1520.6 51.2 1532.08 56.6613C1548.66 64.8533 1558.86 73.728 1565.23 86.6987C1576.71 108.544 1580.54 133.12 1577.35 158.379C1572.25 196.608 1555.67 223.915 1526.98 240.981C1502.75 255.317 1477.88 263.509 1458.12 269.653C1454.29 271.019 1450.47 271.701 1447.28 273.067C1434.53 276.48 1421.77 280.576 1409.66 286.72C1387.98 296.96 1374.59 315.392 1370.13 341.333C1367.58 353.621 1367.58 366.592 1367.58 378.88V385.707C1367.58 397.312 1369.49 409.6 1372.68 423.936C1382.24 461.483 1403.28 492.203 1437.08 516.779C1455.57 529.749 1474.7 539.989 1494.46 550.229C1498.92 552.96 1504.02 555.008 1508.49 557.739C1526.34 567.296 1544.83 578.219 1562.68 591.872C1570.97 598.016 1579.26 605.525 1584.36 615.765V743.424C1583.72 743.424 1582.45 742.059 1581.81 741.376C1581.17 740.693 1580.54 740.011 1579.9 740.011C1565.87 726.357 1554.4 715.435 1544.19 705.195C1524.43 684.715 1507.21 661.504 1486.81 634.197C1468.96 610.304 1454.29 592.555 1438.99 576.853C1435.16 573.44 1431.34 569.344 1428.15 565.931C1414.76 552.96 1401.37 538.624 1388.62 524.288C1375.87 509.269 1364.39 491.52 1354.83 470.357C1342.07 443.051 1336.34 413.013 1331.87 387.072L1329.96 383.659C1328.05 370.005 1325.5 356.352 1321.03 343.381C1316.57 331.776 1308.28 324.949 1298.08 324.949C1296.17 324.949 1293.62 324.949 1291.7 325.632C1286.6 326.997 1281.5 329.045 1275.76 332.459C1258.55 342.699 1250.9 360.448 1245.8 376.832C1239.42 395.947 1238.15 415.744 1236.23 435.541L1235.6 444.416C1233.04 481.28 1222.84 516.096 1206.27 546.816C1193.51 570.027 1177.57 588.459 1159.08 600.747C1142.51 611.669 1124.02 617.131 1102.97 617.131C1093.41 617.131 1085.12 616.448 1074.92 614.4C1055.79 610.987 1043.04 599.381 1037.3 579.584C1034.11 567.979 1033.48 555.691 1032.84 545.451C1032.2 535.211 1032.2 524.971 1031.56 514.731C1031.56 503.125 1030.93 491.52 1030.29 479.915C1029.01 455.339 1024.55 431.445 1016.9 408.235C1009.25 385.024 999.046 361.131 985.018 331.776C971.629 304.469 955.689 285.355 935.286 274.432C925.084 268.971 916.158 264.875 907.869 264.875C897.03 264.875 888.103 271.701 878.539 288.085C863.237 313.344 847.297 335.189 830.719 355.669C815.417 374.101 798.202 391.851 772.698 413.696C751.019 432.128 736.354 450.56 726.153 471.723C724.24 477.867 721.052 484.011 718.502 490.837C714.676 499.029 710.85 507.904 706.387 516.779C690.447 548.181 670.044 567.979 643.902 577.536C636.251 580.267 627.962 582.315 619.674 585.045C608.197 588.459 596.72 592.555 585.243 597.333C547.625 612.352 524.034 636.928 512.557 673.109C504.906 697.003 502.993 717.483 506.181 737.28C509.369 755.029 516.382 772.096 528.497 787.115C552.088 817.835 571.854 847.872 589.069 879.275C595.445 890.197 600.546 899.072 606.284 906.581C618.398 921.6 631.15 929.109 646.453 929.109H648.366C670.044 928.427 689.81 918.187 710.213 897.024C726.153 881.323 735.717 860.16 745.281 839.68L745.918 838.315C759.946 808.277 777.161 783.019 797.564 763.221C817.967 743.424 838.37 723.627 858.774 703.829C870.25 692.907 881.727 681.984 893.204 670.379C916.795 647.851 940.386 636.928 965.89 636.928C967.803 636.928 969.716 636.928 971.629 636.928C989.482 638.293 1001.6 643.755 1011.16 656.043C1017.54 664.235 1022.64 673.109 1027.74 684.032C1030.29 690.176 1032.84 695.637 1035.39 701.099C1043.68 720.896 1053.24 740.693 1064.08 759.125C1076.2 779.605 1088.95 793.259 1103.61 802.816C1116.36 811.008 1129.12 815.104 1141.23 815.104C1149.52 815.104 1157.17 813.056 1165.46 809.643C1173.75 806.229 1180.76 802.133 1187.14 798.037C1191.6 795.307 1195.43 792.576 1199.89 789.845C1210.09 783.019 1220.93 775.509 1232.41 769.365C1248.98 760.491 1265.56 756.395 1282.78 756.395C1289.79 756.395 1297.44 757.077 1305.09 759.125C1337.61 765.952 1360.56 792.576 1366.3 830.123C1368.85 843.776 1368.85 859.477 1366.3 877.909C1363.12 909.312 1344.62 931.84 1317.85 938.667C1302.54 942.08 1287.24 942.763 1271.94 943.445C1264.92 943.445 1257.91 944.128 1251.54 944.811C1247.71 944.811 1243.88 944.811 1240.06 944.811C1234.32 944.811 1227.94 944.811 1221.57 946.176C1193.51 950.272 1172.47 963.925 1157.81 986.453C1152.71 994.645 1148.24 1003.52 1143.78 1015.13C1142.51 1017.86 1141.23 1019.9 1139.32 1021.27H1072.37C1071.73 1019.9 1071.09 1019.22 1071.09 1018.54C1071.09 1015.81 1070.46 1013.08 1070.46 1010.35C1070.46 1007.62 1069.82 1004.89 1069.82 1001.47C1069.82 980.992 1070.46 956.416 1074.92 932.523C1077.47 917.504 1074.92 903.168 1067.27 888.832C1060.26 874.496 1053.24 858.795 1045.59 838.997C1043.04 832.171 1040.49 824.661 1037.94 817.835C1030.93 798.037 1023.27 777.557 1014.35 758.443C1005.42 739.328 997.133 725.675 987.569 714.752C976.092 701.781 962.702 694.955 947.4 694.955C946.762 694.955 945.487 694.955 944.85 694.955C931.46 695.637 918.708 700.416 905.956 709.291C888.103 721.579 871.526 735.915 854.948 749.568L844.109 758.443C828.169 771.413 813.504 787.115 800.114 804.181C784.812 823.979 775.248 847.872 766.959 870.4C753.57 905.899 735.079 937.984 708.938 969.387C698.736 981.675 687.897 996.693 683.434 1017.17C682.796 1019.9 682.158 1021.27 680.246 1022.63H603.734C602.458 1021.27 601.183 1019.9 600.546 1017.86C594.807 1000.79 584.606 986.453 569.303 974.165L562.927 968.704C549.538 957.781 535.51 946.176 523.396 933.205C504.906 913.408 488.328 891.563 472.388 865.621C458.361 842.411 442.421 824.661 423.93 809.643C415.642 802.816 407.353 794.624 397.789 783.701C382.486 766.635 367.822 747.52 353.794 729.088C349.331 722.944 344.868 717.483 340.405 711.339C327.653 694.272 318.089 679.253 311.075 663.552C295.135 624.64 291.31 582.997 289.397 547.499C288.759 523.605 291.31 498.347 298.323 468.309C302.786 449.195 306.612 428.032 305.974 406.187C304.699 373.419 297.048 343.381 282.383 316.757C267.718 291.499 245.402 278.528 216.71 278.528C215.435 278.528 214.16 278.528 212.247 278.528C193.757 279.211 175.266 284.672 156.776 295.595C141.474 303.787 127.446 314.709 111.506 327.68C79.6264 354.304 43.2832 371.371 1.2016 379.563C0.564 379.563 -0.0735998 379.563 -0.7112 380.245C-1.9864 380.245 -3.2616 380.928 -3.8992 380.928C-4.5368 380.928 -5.1744 380.928 -5.812 380.245V309.248C-4.5368 308.565 -3.8992 307.883 -3.2616 307.883C0.564 307.883 3.752 307.2 6.3024 307.2C8.8528 307.2 11.4032 306.517 13.316 306.517C27.3432 305.835 40.7328 303.787 52.8472 299.691C68.7872 294.912 84.0896 286.72 98.7544 279.211C103.855 276.48 108.318 274.432 112.782 271.701C146.574 254.635 178.454 246.443 210.334 246.443C219.261 246.443 228.187 247.125 237.114 248.491C265.168 252.587 286.846 268.288 301.511 296.96C314.263 320.171 323.19 348.16 330.203 384.341C334.666 406.187 335.304 425.984 332.754 444.416C331.478 457.387 328.928 469.675 326.378 481.963C325.102 486.741 324.465 490.837 323.19 495.616C316.814 524.971 315.538 551.595 318.726 578.219C325.74 632.832 349.969 674.475 391.413 700.416C402.252 707.243 412.454 710.656 421.38 710.656C435.407 710.656 447.522 702.464 458.998 686.763C466.65 675.84 473.663 663.552 480.039 651.947C482.59 647.851 485.14 643.072 487.053 638.976C504.268 608.939 528.497 585.728 558.464 570.027C571.216 563.883 583.968 558.421 596.082 552.96C603.734 549.547 610.747 546.816 618.398 543.403C653.466 527.019 672.594 500.395 678.333 460.8C680.883 442.368 682.158 423.253 681.521 404.139C681.521 397.312 682.158 389.803 684.071 382.976C687.259 369.323 694.91 361.813 707.025 359.765C712.126 358.4 717.864 358.4 722.965 358.4H725.515H728.066H729.978C751.019 358.4 770.785 348.16 784.812 330.411C800.114 310.613 807.128 284.672 803.302 258.731C798.839 227.328 788 198.656 777.798 173.397C775.886 168.619 773.973 163.84 772.06 159.061C765.684 142.677 758.67 126.293 754.207 108.544C747.194 83.2853 749.106 63.488 760.583 45.7387C766.959 35.4987 775.248 27.3067 782.899 19.7973C784.812 17.7493 787.362 15.7013 789.275 13.6533C794.376 9.55733 798.839 4.77867 804.578 2.73067ZM804.578 0C795.014 2.73067 789.275 12.288 782.262 18.432C773.973 25.9413 765.684 34.1333 759.308 44.3733C746.556 64.8533 746.556 86.6987 752.932 109.227C759.308 131.755 768.234 152.235 776.523 174.08C786.725 201.387 797.564 229.376 801.39 259.413C808.403 309.931 774.61 355.669 730.616 355.669C729.978 355.669 729.341 355.669 728.703 355.669C726.79 355.669 724.878 355.669 722.965 355.669C717.226 355.669 712.126 355.669 707.025 357.035C693.635 359.765 685.984 367.957 682.158 382.293C680.246 389.12 679.608 396.629 679.608 404.139C679.608 423.253 678.97 441.685 676.42 460.8C670.682 501.077 650.278 526.336 617.761 541.355C597.358 550.229 576.954 557.739 557.826 567.979C527.859 582.997 503.63 606.208 485.14 637.611C476.214 653.312 467.287 670.379 457.086 685.397C446.246 701.099 434.77 708.608 422.018 708.608C413.091 708.608 403.527 705.195 393.326 699.051C351.882 672.427 328.29 631.467 321.277 578.219C318.089 550.229 320.002 523.605 325.74 496.299C329.566 479.232 333.391 462.165 335.942 445.099C338.492 424.619 337.217 404.139 333.391 384.341C327.015 352.939 319.364 322.901 304.699 295.595C289.397 267.605 267.081 250.539 238.389 246.443C228.825 245.077 219.898 244.395 210.972 244.395C177.179 244.395 144.024 253.952 112.144 269.653C92.3784 279.211 73.2504 290.816 52.2096 296.96C39.4576 301.056 26.068 303.104 13.316 303.787C7.5776 303.787 2.4768 305.152 -3.2616 305.152C-3.2616 305.152 -3.2616 305.152 -3.8992 305.152C-5.812 305.152 -7.7248 306.517 -9 307.883C-9 332.459 -9 357.035 -9 381.611C-7.7248 382.976 -5.812 383.659 -4.5368 383.659C-2.624 383.659 -0.7112 382.976 1.2016 382.293C42.008 374.101 79.6264 357.717 113.419 329.728C127.446 318.123 142.111 306.517 158.051 297.643C175.266 288.085 193.757 281.259 212.885 280.576C214.16 280.576 215.435 280.576 217.348 280.576C243.49 280.576 265.168 291.499 280.47 318.123C295.135 344.747 302.786 374.784 303.424 406.187C304.062 427.349 300.236 447.147 295.773 466.944C289.397 493.568 285.571 520.192 286.846 547.499C288.759 587.776 293.222 627.371 309.8 663.552C317.451 681.301 328.29 697.003 339.13 712.021C358.258 736.597 376.11 761.856 396.514 784.384C404.802 793.941 413.729 802.816 423.293 810.325C442.421 825.344 457.723 843.776 471.113 865.621C486.415 890.197 502.993 912.725 522.758 933.888C536.786 948.907 552.726 961.877 568.666 974.848C582.055 985.771 592.894 999.424 599.27 1017.17C600.546 1019.9 602.458 1021.95 604.371 1024C630.513 1024 656.654 1024 682.796 1024C685.346 1021.95 686.622 1019.9 687.259 1016.49C691.722 998.059 701.286 983.04 712.126 970.069C736.354 940.715 756.758 907.947 770.785 870.4C779.711 847.189 789.275 823.979 803.94 804.864C816.692 787.797 831.357 772.779 847.297 759.808C867.7 742.741 887.466 725.675 909.144 710.656C920.621 702.464 933.373 697.685 946.762 697.003C947.4 697.003 948.675 697.003 949.313 697.003C963.978 697.003 977.367 703.829 987.569 716.117C998.408 728.405 1006.7 743.424 1014.35 759.125C1026.46 785.067 1035.39 812.373 1045.59 839.68C1051.97 856.747 1058.98 873.813 1067.27 890.197C1074.28 903.168 1076.83 916.821 1074.28 932.523C1070.46 955.733 1069.82 978.944 1069.18 1002.15C1069.18 1008.3 1070.46 1013.76 1070.46 1019.22C1070.46 1021.95 1071.73 1023.32 1073.01 1024.68C1095.96 1024.68 1118.91 1024.68 1141.87 1024.68C1145.06 1023.32 1146.33 1020.59 1147.61 1017.17C1151.43 1007.62 1155.9 997.376 1161.63 989.184C1176.94 965.291 1198.61 953.685 1223.48 949.589C1233.04 948.224 1243.25 948.907 1253.45 948.224C1275.76 946.176 1298.08 947.541 1320.4 942.08C1347.81 935.253 1367.58 912.725 1370.77 879.275C1372.68 862.891 1373.32 846.507 1370.77 830.123C1364.39 791.893 1341.44 763.904 1307.64 756.395C1299.99 754.347 1292.34 753.664 1285.33 753.664C1267.48 753.664 1250.9 758.443 1234.32 767.317C1218.38 775.509 1204.35 786.432 1189.05 795.989C1182.04 800.768 1175.02 804.181 1167.37 807.595C1159.72 811.008 1152.07 813.056 1144.42 813.056C1131.67 813.056 1120.19 808.96 1108.08 800.768C1092.14 790.528 1080.02 775.509 1069.18 758.443C1055.15 734.549 1044.32 708.608 1032.84 683.349C1028.38 673.109 1022.64 663.552 1015.62 654.677C1004.15 640.341 990.119 635.563 974.179 634.88C972.266 634.88 970.354 634.88 967.803 634.88C939.111 634.88 914.882 648.533 893.204 669.013C861.324 699.733 829.444 730.453 797.564 761.173C775.886 782.336 758.67 808.277 745.281 836.949C735.717 858.112 725.515 879.275 710.213 894.976C692.998 912.725 673.87 925.696 650.278 926.379C649.641 926.379 649.003 926.379 648.366 926.379C633.063 926.379 620.311 918.187 610.11 905.216C601.821 896.341 596.72 887.467 591.619 877.909C573.766 845.141 552.726 814.421 530.41 785.749C519.57 771.413 511.919 755.712 508.731 737.28C505.543 715.435 508.731 694.955 515.107 674.475C527.859 635.563 553.363 613.717 585.881 600.064C605.646 591.872 625.412 587.093 645.178 579.584C673.87 568.661 694.273 546.816 708.938 517.461C716.589 503.125 722.327 487.424 729.341 472.405C740.18 449.195 756.758 431.445 775.248 415.744C795.651 397.995 816.054 378.88 833.27 357.035C850.485 335.872 866.425 312.661 881.09 288.768C890.654 273.067 898.942 266.923 908.506 266.923C916.158 266.923 924.446 270.336 934.648 276.48C956.964 288.768 971.629 308.565 983.106 333.141C995.22 357.717 1006.06 382.293 1014.99 408.917C1022.64 432.128 1027.1 455.339 1028.38 479.915C1029.65 501.76 1029.65 523.605 1030.93 545.451C1031.56 557.056 1032.84 568.661 1036.03 580.267C1041.13 602.795 1055.79 614.4 1074.92 617.131C1083.85 618.496 1093.41 619.861 1102.34 619.861C1122.1 619.861 1141.87 615.083 1159.72 603.477C1180.12 589.824 1195.43 571.392 1208.18 548.864C1225.39 517.461 1234.96 482.645 1238.15 445.781C1240.06 423.253 1240.7 400.725 1248.35 378.88C1254.09 361.131 1261.74 345.429 1277.04 335.872C1282.14 333.141 1286.6 330.411 1292.34 329.045C1294.25 328.363 1296.17 328.363 1298.08 328.363C1307.64 328.363 1314.66 333.824 1318.48 344.747C1323.58 358.4 1325.5 373.419 1328.05 387.755C1332.51 417.109 1338.25 445.781 1351 471.723C1360.56 491.52 1371.4 509.952 1385.43 525.653C1401.37 544.768 1419.22 561.152 1436.44 578.219C1453.65 595.285 1468.96 615.083 1483.62 634.88C1501.47 660.139 1520.6 684.715 1541.01 706.56C1552.48 718.848 1564.6 730.453 1576.71 742.059C1578.62 743.424 1580.54 746.837 1583.09 746.837C1583.72 746.837 1584.36 746.837 1585.64 746.155C1585.64 702.464 1585.64 658.773 1585.64 615.765C1579.9 604.843 1571.61 597.333 1562.68 590.507C1545.47 576.853 1526.98 565.931 1508.49 555.691C1484.26 542.72 1460.03 531.115 1437.71 514.731C1407.11 492.885 1384.16 464.213 1373.95 423.936C1370.77 411.648 1368.85 399.36 1368.85 386.389C1368.85 372.053 1368.22 357.035 1371.4 342.699C1375.87 316.757 1388.62 299.691 1409.66 289.451C1424.32 281.941 1440.9 277.845 1457.48 273.067C1481.07 265.557 1504.66 256.683 1526.98 243.712C1557.58 225.963 1573.52 197.291 1578.62 159.744C1581.81 133.803 1577.99 109.227 1566.51 86.016C1558.86 70.3147 1546.11 61.44 1532.08 54.6133C1518.05 47.7867 1502.75 44.3733 1488.08 39.5947C1478.52 36.864 1469.59 34.1333 1460.03 30.0373C1449.83 25.2587 1442.18 17.0667 1435.8 7.50933C1433.89 4.77867 1431.98 2.048 1429.43 0C1412.21 0 1395 0 1378.42 0C1375.23 3.41333 1375.23 8.192 1374.59 12.9707C1373.32 23.8933 1371.4 34.1333 1368.22 44.3733C1365.03 53.9307 1359.29 59.392 1351 61.44C1340.16 64.8533 1329.96 65.536 1319.12 66.9013C1302.54 68.9493 1285.97 70.3147 1270.03 71.68C1264.29 72.3627 1259.19 72.3627 1254.09 72.3627C1227.31 72.3627 1202.44 66.2187 1180.12 45.7387C1168.65 34.816 1160.36 21.8453 1153.34 6.82667C1150.79 4.77867 1149.52 2.048 1146.33 0C1128.48 0 1110.63 0 1092.77 0C1090.22 2.73067 1090.86 5.46133 1092.14 8.192C1097.24 23.2107 1104.25 38.2293 1113.81 50.5173C1139.32 81.2373 1168.65 103.765 1204.99 114.005C1213.92 116.736 1222.84 117.419 1232.41 117.419C1234.32 117.419 1236.23 117.419 1238.15 117.419C1245.16 117.419 1252.81 117.419 1259.82 117.419C1268.11 117.419 1276.4 117.419 1284.69 118.784C1296.8 120.832 1308.28 123.563 1316.57 135.168C1319.76 139.264 1322.31 144.043 1323.58 149.504C1331.24 186.368 1326.13 230.059 1291.7 256C1278.95 265.557 1266.2 274.432 1254.09 285.355C1227.31 308.565 1212 339.968 1205.63 377.515C1203.08 394.581 1202.44 411.648 1201.8 428.715C1201.16 451.925 1199.89 475.136 1192.88 496.981C1185.22 520.875 1174.39 542.037 1155.9 557.056C1144.42 566.613 1132.3 571.392 1118.91 571.392C1115.09 571.392 1110.63 570.709 1106.8 570.027C1090.22 565.931 1079.38 553.643 1073.01 536.576C1067.91 522.923 1065.99 508.587 1065.36 494.251C1062.81 451.243 1058.34 408.917 1050.69 365.909C1047.5 345.429 1045.59 324.949 1044.32 304.469C1041.76 272.384 1032.84 243.029 1013.71 218.453C1004.15 206.848 993.945 195.925 983.743 185.003C970.354 169.301 961.427 151.552 956.326 130.389C951.863 112.64 948.675 94.208 944.212 76.4587C937.836 52.5653 929.547 30.0373 921.896 6.144C920.621 3.41333 918.708 1.36533 916.158 0C879.177 0 841.558 0 804.578 0Z" fill="#6335E9"/>
<path d="M-3.2616 619.86C-2.624 619.86 -2.624 619.86 -1.9864 619.86C13.316 621.908 24.7928 623.956 35.632 626.004C79.6264 634.878 115.97 658.772 142.749 695.636C150.4 705.876 156.776 716.116 161.877 726.356C177.817 759.124 182.918 793.94 185.468 827.39V829.438C187.381 850.601 189.294 873.129 195.032 894.292C201.408 918.868 210.972 936.617 225.637 948.905C235.838 957.78 246.678 965.289 257.517 972.798C261.342 975.529 265.806 978.26 269.631 980.99C282.383 989.865 293.222 1001.47 302.786 1015.12C304.699 1017.85 305.337 1019.22 304.699 1020.58H246.04C242.214 1019.22 238.389 1018.54 235.201 1017.85C232.65 1017.17 230.1 1016.49 227.55 1015.81C223.086 1014.44 218.623 1013.76 214.16 1013.76C205.871 1013.76 198.22 1015.81 190.569 1020.58C125.534 1020.58 60.4984 1020.58 -3.8992 1020.58C-5.1744 1020.58 -5.1744 1020.58 -5.812 1020.58C-5.812 1020.58 -5.812 1019.9 -5.812 1018.54C-5.812 1008.98 -5.812 998.74 -5.812 989.182V977.577C-4.5368 976.894 -3.8992 976.212 -1.9864 976.212C-0.711199 976.212 -0.0735989 976.212 1.2016 976.212C6.3024 976.894 11.4032 976.894 15.8664 976.894H24.7928H34.3568C45.8336 976.894 57.948 976.894 70.0624 975.529C86.0024 974.164 104.493 971.433 121.708 965.289C136.373 959.828 145.937 948.222 149.762 930.473C153.588 911.358 154.863 892.244 155.501 870.398C156.138 850.601 157.414 831.486 156.138 811.689C154.226 778.921 147.85 753.662 137.01 731.817C121.07 700.414 99.392 679.252 70.7 668.329C54.76 662.185 39.4576 661.502 27.9808 661.502C20.9672 661.502 14.5912 661.502 7.5776 662.185H3.752C3.1144 662.185 2.4768 662.185 1.8392 662.185C0.564002 662.185 -0.0735989 662.185 -0.711199 662.185C-2.624 662.185 -3.2616 661.502 -4.5368 660.82V621.225C-5.812 619.86 -4.5368 619.86 -3.2616 619.86ZM-3.2616 617.129C-5.1744 617.129 -7.0872 617.812 -9 619.86C-9 634.878 -9 649.214 -9 664.233C-7.0872 666.964 -5.1744 666.964 -2.624 666.964C-0.711199 666.964 0.564002 666.964 2.4768 666.281C10.7656 666.281 18.4168 665.598 26.7056 665.598C40.7328 665.598 54.76 666.964 68.7872 671.742C98.1168 682.665 119.158 703.828 133.822 733.865C145.937 758.441 151.038 785.065 152.95 813.054C154.226 832.852 153.588 851.966 152.313 871.764C151.675 891.561 150.4 911.358 146.574 931.156C142.749 947.54 134.46 958.462 120.433 963.924C103.855 970.068 86.64 972.116 69.4248 974.164C57.3104 975.529 45.8336 975.529 33.7192 975.529C27.3432 975.529 21.6048 975.529 15.2288 975.529C10.128 975.529 5.6648 975.529 0.564002 974.846C-0.711198 974.846 -1.9864 974.846 -2.624 974.846C-5.1744 974.846 -7.0872 975.529 -9 978.26C-9 991.913 -9 1006.25 -9 1019.9C-9 1023.32 -8.3624 1024 -4.5368 1024C60.4984 1024 125.534 1024 190.569 1024C198.22 1019.22 205.871 1017.17 213.522 1017.17C217.986 1017.17 222.449 1017.85 226.274 1019.22C232.65 1021.27 239.026 1021.95 245.402 1024C265.806 1024 286.846 1024 307.25 1024C309.8 1019.9 307.887 1017.17 305.974 1014.44C296.41 1000.79 284.934 988.5 272.182 979.625C257.517 968.702 242.214 959.145 228.187 946.857C212.885 933.204 203.958 914.772 198.858 893.609C193.119 871.764 191.206 849.918 189.294 827.39C186.106 791.892 181.005 757.076 165.065 724.99C159.326 714.068 152.95 703.145 145.937 693.588C116.607 655.358 80.264 632.83 36.2696 623.273C23.5176 620.542 10.7656 618.494 -1.9864 617.129C-1.9864 617.129 -2.624 617.129 -3.2616 617.129Z" fill="#6335E9"/>
<path d="M332.119 2.73067H355.71C357.623 4.096 358.26 6.144 358.898 10.24C362.724 29.3547 369.737 49.152 381.852 73.0453C387.59 83.968 392.691 94.8907 398.429 105.131C407.356 122.197 416.282 139.947 425.208 157.013C435.41 177.493 446.249 199.339 462.827 215.723C483.23 235.52 502.996 245.077 523.399 245.077C525.312 245.077 527.224 245.077 529.137 245.077C548.265 243.712 563.568 234.837 575.044 217.771C589.709 196.608 594.81 171.349 597.998 149.504C601.186 132.437 601.824 114.688 603.099 98.304L603.736 89.4293C605.012 63.488 608.837 38.2293 612.025 12.9707L612.663 8.87467C612.663 6.82667 613.938 5.46133 615.213 3.41333H670.684C668.134 17.0667 664.308 30.0373 658.57 43.008C645.18 72.3627 635.616 104.448 629.24 141.312L627.965 145.408C624.14 169.301 619.676 193.195 612.025 216.405C608.2 229.376 603.736 243.029 594.81 253.269C580.783 269.653 563.568 277.845 541.252 277.845C536.151 277.845 531.05 277.163 525.312 276.48C487.693 270.336 455.813 248.491 427.759 208.213C415.644 190.464 404.805 170.667 394.604 150.869L393.328 148.821C389.503 141.995 385.677 135.168 381.852 128.341C369.737 105.813 356.985 82.6027 347.421 58.0267C339.132 36.864 334.032 19.7973 332.119 2.73067ZM329.568 0C331.481 20.48 337.857 40.2773 344.871 59.392C357.623 91.4773 374.838 120.149 390.778 150.187C401.617 170.667 412.456 191.147 425.846 210.261C451.35 247.125 483.868 273.067 525.312 279.211C530.412 279.893 536.151 280.576 541.252 280.576C561.655 280.576 580.783 273.749 596.723 255.317C605.649 244.395 610.112 231.424 614.576 217.771C622.227 193.195 626.69 166.571 631.153 141.312C636.892 107.179 646.456 75.0933 660.483 43.6907C666.859 30.0373 671.322 15.7013 673.872 0.682667C654.107 0.682667 634.341 0.682667 614.576 0.682667C612.025 2.048 610.75 4.096 610.112 8.192C606.287 34.816 602.461 61.44 601.186 88.7467C599.911 109.227 598.636 129.024 596.085 149.504C592.897 173.397 587.796 196.608 573.769 216.405C562.292 232.107 546.99 240.981 529.137 241.664C527.224 241.664 525.312 241.664 523.399 241.664C501.083 242.347 481.955 230.741 464.74 213.675C448.8 197.973 437.96 176.811 427.759 156.331C413.732 127.659 398.429 99.6693 384.402 71.68C374.838 51.8827 365.912 32.0853 362.086 10.24C360.811 6.144 360.173 2.048 356.348 0C347.421 0 338.495 0 329.568 0Z" fill="#6335E9"/>
<path d="M93.016 2.73067H166.978C165.065 12.288 163.152 20.48 159.326 29.3547C146.574 60.0747 126.171 86.6987 98.7544 107.179C82.1768 119.467 64.324 125.611 45.8336 125.611C40.7328 125.611 34.9944 124.928 29.8936 124.245L0.564001 118.784L-6.4496 118.101V26.624C-4.5368 25.2587 -2.624 24.576 -0.0735989 24.576C1.8392 24.576 3.1144 24.576 5.0272 25.2587C6.3024 25.2587 7.5776 25.9413 8.8528 25.9413L15.2288 26.624C22.2424 27.3067 29.8936 27.9893 37.5448 27.9893C42.008 27.9893 45.196 27.9893 49.0216 27.3067C64.9616 25.9413 77.7136 19.7973 87.2776 8.87467C89.1904 5.46133 91.1032 4.096 93.016 2.73067ZM92.3784 0C89.828 1.36533 87.9152 3.41333 85.3648 5.46133C75.1632 17.0667 63.0488 22.528 49.0216 23.8933C45.196 23.8933 41.3704 24.576 37.5448 24.576C27.9808 24.576 18.4168 23.8933 8.8528 23.2107C6.3024 23.2107 3.1144 22.528 -0.0735989 22.528C-3.2616 22.528 -6.4496 23.2107 -9 25.9413C-9 57.344 -9 88.7467 -9 120.149C3.752 122.197 16.504 124.928 29.256 126.976C34.9944 127.659 40.0952 128.341 45.8336 128.341C64.9616 128.341 83.452 121.515 100.667 109.227C127.446 89.4293 148.487 63.488 161.877 30.0373C165.702 20.48 168.253 10.24 170.803 0C144.662 0 118.52 0 92.3784 0Z" fill="#6335E9"/>
<path d="M1582.45 848.552V936.616C1581.81 937.982 1581.18 938.664 1581.18 940.03C1580.54 942.078 1579.26 944.126 1578.62 944.808C1570.34 952.318 1560.77 961.192 1549.93 968.019C1535.91 976.894 1519.97 983.038 1505.3 988.499C1500.84 990.547 1495.74 991.912 1491.27 993.96C1478.52 998.739 1467.68 1003.52 1458.76 1013.08C1455.57 1016.49 1452.38 1019.22 1448.55 1021.27H1396.91C1398.18 995.326 1412.21 974.846 1433.89 965.971C1442.18 962.558 1450.47 959.827 1458.76 957.096C1467.68 953.683 1476.61 950.952 1485.54 947.539C1506.58 939.347 1525.07 927.059 1539.09 911.358C1548.02 901.118 1555.67 890.195 1562.68 878.59L1567.15 872.446C1569.06 869.032 1570.97 866.302 1572.89 862.888C1576.07 858.11 1579.26 853.331 1582.45 848.552ZM1585 841.043C1577.35 849.918 1571.61 860.84 1565.24 870.398C1556.31 883.368 1548.02 897.022 1537.82 908.627C1522.52 925.011 1504.66 936.616 1484.9 944.126C1467.68 950.952 1449.83 956.414 1432.61 962.558C1409.02 972.798 1393.72 996.008 1393.72 1024C1412.21 1024 1430.06 1024 1448.55 1024C1453.02 1021.95 1456.21 1018.54 1460.03 1015.12C1469.6 1006.25 1480.43 1001.47 1491.91 996.691C1511.68 988.499 1532.08 982.355 1551.21 970.75C1562.05 963.923 1570.97 955.731 1579.9 947.539C1582.45 944.808 1583.09 941.395 1585 937.982C1585 905.214 1585 873.128 1585 841.043Z" fill="#6335E9"/>
<path d="M171.441 2.73067H221.811C222.449 4.096 221.811 6.144 221.174 8.87467V10.24C214.16 37.5467 200.77 60.0747 187.381 79.872C183.555 86.016 179.092 92.16 174.629 97.6213C165.702 110.592 157.414 122.88 149.762 136.533C145.299 144.725 139.561 155.648 137.01 168.619C134.46 180.907 137.01 190.464 145.299 197.973C150.4 202.752 156.776 204.8 161.239 206.165C175.904 210.944 191.206 212.309 206.509 213.675L214.798 214.357H218.623C231.375 215.723 245.402 217.088 258.154 219.819C291.947 227.328 314.263 247.125 327.015 279.893C340.405 314.027 351.244 352.939 360.808 401.408C367.184 432.811 366.546 462.165 358.895 491.52C353.794 508.587 350.606 524.288 349.331 539.989C346.143 576.853 352.519 603.477 369.734 626.005C381.211 640.341 395.876 648.533 409.903 648.533C420.742 648.533 431.582 643.755 441.146 634.88C448.797 627.371 456.448 618.496 464.099 608.939C478.126 591.189 490.878 577.536 502.993 567.296C518.295 555.691 534.235 546.133 550.175 536.576L554.001 534.528L559.102 531.115C572.491 523.605 586.518 515.413 598.633 503.808C615.21 488.789 623.499 468.992 622.862 445.099C622.224 424.619 617.123 403.456 608.197 378.88C598.633 352.939 582.693 336.555 560.377 329.728C546.987 325.632 530.41 320.853 515.107 314.027C467.287 294.229 426.481 262.144 395.238 218.453C363.358 174.763 336.579 124.245 307.25 54.6133C301.511 40.96 296.41 25.9413 292.585 10.9227V9.55733C291.947 6.82667 291.31 4.77867 292.585 3.41333H328.928C330.203 5.46133 330.841 7.50933 331.478 10.9227C336.579 37.5467 345.506 63.488 359.533 90.7947C372.285 116.053 386.312 141.312 400.339 165.888L405.44 175.445C420.105 202.069 433.494 223.232 451.985 240.299C481.952 267.605 509.369 279.893 538.698 279.893C539.974 279.893 541.249 279.893 543.162 279.893C578.23 278.528 600.546 261.461 612.022 226.645C620.311 202.069 625.412 176.811 629.875 152.235C634.976 123.563 641.352 90.112 654.742 59.392L656.017 57.344C663.03 40.96 670.044 24.576 673.87 6.82667C673.87 5.46133 674.507 4.77867 675.782 4.096L676.42 3.41333H799.477C796.289 6.82667 792.463 10.24 789.275 13.6533C786.725 16.384 783.537 19.1147 780.986 21.8453C774.61 27.9893 767.597 34.1333 762.496 42.3253C752.932 56.6613 749.106 69.632 749.744 83.2853C750.382 96.9387 753.57 111.275 759.946 129.024C763.771 139.947 768.234 151.552 772.698 162.475C777.798 175.445 782.899 189.099 788 202.069C795.651 223.232 803.302 247.808 803.302 275.115C803.302 310.613 780.349 344.064 750.382 352.939C742.73 354.987 735.079 355.669 727.428 355.669C724.24 355.669 720.414 355.669 716.589 356.352C696.186 357.717 685.346 363.179 681.521 389.803C680.246 399.36 680.246 408.917 680.246 418.475C680.246 425.984 680.246 434.176 679.608 441.685C677.695 456.704 675.782 473.771 669.406 490.155C660.48 513.365 643.902 529.749 618.398 542.037C609.472 545.451 601.183 548.864 592.894 552.277C576.317 559.104 558.464 566.613 542.524 577.536C522.758 589.824 507.456 604.843 495.342 622.592C488.328 632.149 482.59 642.389 477.489 652.629C471.113 664.235 464.099 675.84 456.448 686.763C444.971 702.464 435.407 708.608 423.293 708.608C418.192 708.608 411.816 707.243 404.802 705.195C386.312 698.368 369.097 684.715 352.519 662.187C325.74 626.005 315.538 580.949 320.639 524.288C321.914 511.317 325.102 497.664 327.653 485.376C328.928 479.232 330.203 473.771 331.478 468.992C336.579 444.416 337.854 425.301 335.942 406.869C330.841 363.861 320.639 326.997 303.424 294.912C291.947 273.067 276.007 258.048 255.604 251.221C242.214 246.443 228.825 244.395 213.522 244.395C207.146 244.395 200.133 245.077 193.119 245.76C159.964 249.173 128.722 259.413 98.7544 276.48C65.5992 296.277 31.1688 305.152 -5.812 305.152H-6.4496V120.832C-5.812 120.149 -5.1744 120.149 -4.5368 120.149C-3.8992 120.149 -3.2616 120.149 -2.624 120.149C1.8392 121.515 5.6648 122.197 9.4904 122.88C13.9536 123.563 18.4168 124.928 23.5176 125.611C32.444 126.976 39.4576 127.659 46.4712 127.659C59.2232 127.659 70.0624 125.611 80.264 120.832C99.392 111.275 117.245 96.9387 133.822 77.1413C151.675 55.296 163.152 32.768 168.89 7.50933C168.89 5.46133 170.166 4.096 171.441 2.73067ZM170.803 0C168.253 1.36533 166.978 3.41333 166.34 6.82667C159.964 32.768 147.85 55.296 131.91 75.0933C115.97 93.5253 99.392 108.544 78.9888 118.101C68.1496 122.88 57.3104 124.928 46.4712 124.928C38.82 124.928 31.8064 124.245 24.1552 122.88C15.2288 121.515 6.3024 119.467 -1.9864 118.101C-2.624 118.101 -3.2616 118.101 -3.8992 118.101C-5.812 117.419 -7.7248 118.101 -9 120.149C-9 182.955 -9 245.077 -9 307.883C-7.7248 307.883 -6.4496 307.883 -5.812 307.883C31.1688 307.883 66.2368 298.325 100.03 279.211C129.359 262.144 160.602 251.904 193.119 248.491C200.133 247.808 206.509 247.125 213.522 247.125C227.55 247.125 241.577 249.173 254.966 253.952C275.37 260.779 290.672 275.797 301.511 296.277C319.364 330.411 329.566 367.957 333.391 407.552C335.942 428.032 333.391 448.512 328.928 468.992C325.102 486.741 320.002 505.173 318.089 523.605C312.988 574.805 320.639 623.275 349.969 663.552C364.634 683.349 381.849 700.416 403.527 707.925C410.541 710.656 416.917 712.021 422.655 712.021C436.682 712.021 446.246 704.512 457.723 689.493C472.388 669.696 482.59 645.803 496.617 625.323C509.369 606.208 525.309 591.872 543.162 580.267C566.753 565.248 592.894 556.373 617.761 544.768C640.714 533.845 659.842 518.144 670.044 491.52C675.782 475.819 678.333 459.435 680.246 442.368C682.158 425.301 679.608 407.552 682.158 390.485C685.984 365.909 694.273 360.448 714.676 359.083C726.153 358.4 737.63 359.765 749.106 356.352C780.349 347.477 803.302 313.344 803.94 276.48C803.94 250.539 796.926 225.963 788.638 202.752C779.711 178.176 770.147 154.283 760.583 129.707C756.12 114.005 751.657 98.9867 751.019 83.2853C750.382 68.2667 755.482 55.9787 763.134 43.6907C770.785 32.0853 780.986 24.576 789.913 15.0187C794.376 10.24 799.477 5.46133 804.578 0C761.221 0 717.226 0 673.87 0C672.594 2.048 670.682 2.73067 670.044 5.46133C665.581 23.8933 658.567 40.96 651.554 58.0267C638.802 87.3813 632.426 119.467 626.687 151.552C622.224 176.811 617.123 201.387 608.834 225.28C597.995 258.048 577.592 275.115 541.886 276.48C540.611 276.48 539.336 276.48 538.061 276.48C505.543 276.48 478.126 260.096 453.26 237.568C434.132 219.819 420.105 197.291 407.353 173.397C391.413 145.408 376.11 117.419 360.808 88.064C348.056 63.488 338.492 37.5467 333.391 8.87467C332.754 6.144 332.116 2.73067 329.566 0C316.814 0 304.062 0 291.31 0C288.122 3.41333 289.397 7.50933 290.034 11.6053C293.86 26.624 298.323 41.6427 304.699 55.9787C328.928 114.005 356.982 169.984 393.326 219.819C425.843 264.875 466.65 296.96 514.47 316.757C529.134 322.901 544.437 327.68 559.739 332.459C582.055 339.285 597.358 356.352 606.284 380.245C613.935 401.408 619.674 422.571 620.311 445.781C620.949 468.992 612.66 487.424 596.72 502.443C583.33 514.731 567.39 523.605 552.088 532.48C534.873 542.72 517.658 552.277 502.355 565.248C487.69 577.536 474.938 591.872 462.824 607.573C455.81 616.448 448.159 625.323 439.87 632.832C430.306 642.389 420.105 645.803 409.903 645.803C395.876 645.803 382.486 637.611 371.647 623.275C353.157 600.064 349.331 571.392 351.882 540.672C353.157 524.288 356.982 507.904 360.808 492.203C368.459 462.165 369.097 431.445 362.721 400.725C354.432 359.083 344.23 318.123 328.928 278.528C315.538 243.029 290.672 224.597 258.154 217.088C244.127 213.675 229.462 212.992 214.798 211.627C196.945 209.579 179.092 208.896 161.877 203.435C156.776 202.069 151.675 200.021 147.212 195.925C139.561 189.099 137.648 180.224 139.561 169.301C141.474 157.696 146.574 147.456 152.313 137.899C163.152 118.101 176.542 100.352 189.294 81.92C203.958 60.0747 216.71 37.5467 223.724 10.9227C224.362 7.50933 225.637 3.41333 223.724 0C205.871 0 188.018 0 170.803 0Z" fill="#0AE29F"/>
<path d="M919.982 2.73067H972.903C975.453 4.77867 976.728 7.50933 977.366 10.9227L978.003 12.9707C983.104 27.3067 990.755 40.2773 1001.59 52.5653C1004.78 55.9787 1008.61 60.0747 1013.71 60.0747C1014.98 60.0747 1016.26 60.0747 1017.53 59.392C1023.91 56.6613 1025.19 50.5173 1025.82 45.056V43.6907C1027.1 36.1813 1027.1 28.672 1027.1 21.1627C1027.1 17.0667 1027.1 13.6533 1027.1 9.55733V8.192C1027.1 5.46133 1027.1 4.096 1028.37 2.73067H1089.58C1092.77 14.336 1097.87 26.624 1105.52 38.912C1117 58.0267 1133.58 74.4107 1155.89 90.112C1177.57 105.131 1198.61 114.005 1219.65 116.053C1227.94 116.736 1236.23 117.419 1241.97 117.419C1245.16 117.419 1248.98 117.419 1252.17 117.419C1255.36 117.419 1259.19 117.419 1262.37 117.419C1264.92 117.419 1266.84 117.419 1269.39 117.419C1280.86 117.419 1289.79 118.784 1297.44 121.515C1312.11 126.293 1321.03 137.216 1323.58 154.283C1325.5 165.205 1326.13 176.128 1324.86 190.464C1322.95 216.405 1313.38 236.885 1294.89 252.587C1287.88 258.731 1280.23 264.192 1272.57 269.653C1269.39 273.067 1265.56 276.48 1261.74 279.211C1232.41 301.739 1213.92 333.824 1206.26 373.419C1203.08 391.851 1202.44 410.283 1201.8 428.032C1201.8 434.176 1201.16 441.003 1201.16 447.147C1199.89 476.501 1194.15 499.712 1184.59 519.509C1169.28 550.229 1150.79 566.613 1125.93 571.392C1123.38 572.075 1120.83 572.075 1118.28 572.075C1097.23 572.075 1078.74 557.056 1072.37 534.528C1066.63 516.096 1065.35 496.981 1064.08 479.915L1063.44 468.992C1062.17 451.925 1060.89 434.859 1058.34 417.792C1052.6 380.928 1046.23 337.92 1042.4 294.912C1039.21 262.827 1027.74 234.155 1006.7 210.944C1003.51 207.531 999.682 203.435 996.494 200.021C990.755 193.877 985.017 187.733 979.279 180.907C971.627 172.032 965.251 161.109 961.426 149.504C955.687 133.803 952.499 116.736 948.674 100.352C942.935 73.0453 934.009 47.104 925.72 21.8453C924.445 15.7013 921.895 8.87467 919.982 2.73067ZM916.156 0C926.995 33.4507 939.747 65.536 946.761 100.352C949.949 117.419 953.775 133.803 959.513 150.187C963.976 162.475 969.715 172.715 978.003 182.272C986.93 192.512 995.856 202.752 1004.78 212.309C1025.19 234.837 1037.3 262.144 1039.85 294.229C1043.68 335.189 1049.41 376.149 1055.79 417.109C1058.98 437.589 1060.25 458.752 1061.53 479.232C1062.8 497.664 1064.08 516.779 1069.82 534.528C1076.83 558.421 1096.6 573.44 1118.28 573.44C1120.83 573.44 1123.38 573.44 1126.56 572.757C1155.26 567.296 1173.75 546.816 1187.14 519.509C1197.98 498.347 1202.44 473.771 1203.71 447.829C1204.99 423.253 1204.35 398.677 1208.81 374.101C1215.83 334.507 1234.32 303.787 1263.01 281.259C1274.49 272.384 1285.96 264.192 1297.44 254.635C1315.93 238.933 1326.77 217.771 1328.68 190.464C1329.32 178.176 1329.32 165.888 1327.41 153.6C1324.22 135.168 1314.02 124.245 1299.35 118.784C1289.79 115.371 1280.23 114.688 1270.66 114.688C1268.11 114.688 1266.2 114.688 1263.65 114.688C1256.63 114.688 1250.26 114.688 1243.24 114.688C1235.59 114.688 1228.58 114.688 1220.93 114.005C1197.98 111.275 1177.57 101.717 1158.44 88.064C1139.32 74.4107 1121.46 58.7093 1108.71 37.5467C1101.7 25.9413 1095.32 13.6533 1092.77 0C1071.73 0 1050.05 0 1028.37 0C1025.19 2.73067 1025.82 6.144 1025.82 9.55733C1025.19 21.1627 1027.1 32.0853 1024.55 43.6907C1023.27 49.152 1023.27 55.296 1017.53 57.344C1016.26 58.0267 1015.62 58.0267 1014.35 58.0267C1009.88 58.0267 1006.7 54.6133 1004.15 51.2C993.943 39.5947 986.292 27.3067 980.554 12.9707C979.279 8.192 978.003 2.73067 973.54 0C954.412 0 935.284 0 916.156 0Z" fill="#6335E9"/>
<path d="M948.679 696.317C959.518 696.317 969.082 699.73 977.371 706.557C985.66 713.383 992.673 722.258 1000.32 733.863C1014.99 757.757 1024.55 784.381 1034.12 811.005L1036.67 817.831L1037.31 820.562C1045.59 843.773 1054.52 868.349 1066 890.877C1073.01 903.847 1074.92 917.501 1072.37 931.837C1069.19 952.999 1067.27 976.893 1067.27 1002.83C1067.27 1005.56 1067.91 1008.98 1067.91 1011.71C1067.91 1014.44 1068.55 1017.85 1068.55 1021.27H994.586C992.036 1019.22 990.123 1015.8 988.21 1012.39C987.573 1011.03 986.935 1009.66 986.297 1008.3C978.646 995.325 971.633 983.037 967.169 968.701C955.055 931.154 951.229 889.511 954.417 841.725L955.055 834.898C956.33 822.61 956.968 809.639 955.055 796.669C952.505 777.554 939.115 764.583 922.537 764.583C920.625 764.583 919.349 764.583 917.437 764.583C898.946 767.314 880.456 774.823 859.415 788.477C847.938 795.986 837.737 805.543 828.81 816.466C814.783 834.215 803.944 856.061 796.93 881.319C784.178 929.106 773.977 972.114 766.963 1012.39V1013.76C766.325 1017.17 765.688 1019.9 763.775 1020.58H684.713C687.901 1006.93 691.726 996.007 698.102 987.133C705.116 976.21 712.767 966.653 719.781 957.778C733.808 940.029 744.647 923.645 753.573 905.895C760.587 892.242 766.325 877.906 772.064 864.253C775.889 855.378 779.715 845.821 783.541 836.946C793.742 814.418 807.769 794.621 826.897 776.189C851.126 752.978 877.905 731.815 902.772 713.383C912.973 705.191 923.175 700.413 934.014 697.682C939.115 696.999 943.578 696.317 948.679 696.317ZM948.679 693.586C943.578 693.586 938.477 694.269 933.377 695.634C921.9 698.365 911.061 703.826 901.497 711.335C875.355 731.133 849.213 751.613 824.985 774.823C807.132 791.89 791.829 812.37 780.99 836.263C770.789 859.474 762.5 883.367 751.023 905.213C741.459 923.645 729.982 940.711 717.868 956.413C710.216 965.97 702.565 975.527 696.189 985.767C688.538 997.373 684.713 1009.66 682.162 1023.31C709.579 1023.31 737.633 1023.31 765.05 1023.31C768.876 1021.27 769.513 1017.17 770.151 1013.07C777.802 968.701 788.641 925.693 800.118 882.685C806.494 858.791 816.696 836.946 831.361 818.514C840.287 807.591 849.851 798.717 861.328 791.207C879.181 779.602 897.671 770.727 918.712 767.314C919.987 767.314 921.9 767.314 923.175 767.314C938.477 767.314 950.592 778.919 953.142 797.351C955.693 812.37 953.78 826.706 952.505 841.725C949.317 885.415 951.867 928.423 965.257 970.066C969.72 984.402 977.371 997.373 985.022 1010.34C987.573 1015.12 990.123 1021.27 994.586 1024C1020.09 1024 1045.59 1024 1071.74 1024C1072.37 1016.49 1070.46 1009.66 1070.46 1002.83C1070.46 978.941 1071.74 955.047 1075.56 931.837C1078.11 916.818 1075.56 902.482 1068.55 888.829C1057.07 865.618 1048.14 841.042 1039.22 816.466C1029.02 787.794 1018.81 758.439 1002.87 732.498C996.499 721.575 988.848 712.018 979.284 704.509C969.082 696.999 958.881 693.586 948.679 693.586Z" fill="#6335E9"/>
<path d="M1580.53 0V2.73067C1581.81 2.73067 1582.45 2.73067 1582.45 2.73067C1582.45 2.73067 1582.45 3.41333 1582.45 5.46133C1582.45 80.5547 1582.45 156.331 1582.45 231.424V315.392C1581.81 315.392 1581.81 315.392 1581.81 315.392C1581.17 315.392 1579.9 315.392 1579.26 314.709H1578.62C1575.43 313.344 1571.61 311.979 1568.42 310.613C1563.32 308.565 1558.22 306.517 1553.12 305.152C1538.45 301.056 1523.79 299.008 1509.76 299.008C1486.81 299.008 1463.85 304.469 1441.54 314.027C1412.21 327.68 1396.9 354.304 1398.18 390.485C1399.45 420.523 1410.93 445.099 1433.25 464.896C1454.29 482.645 1479.79 491.52 1511.03 491.52C1516.77 491.52 1523.15 491.52 1529.52 490.837C1542.28 489.472 1555.03 486.059 1567.14 483.328C1570.97 482.645 1574.79 481.28 1578.62 480.597H1579.26C1579.9 480.597 1581.17 479.915 1581.81 479.915C1582.45 479.915 1582.45 479.915 1583.08 480.597V610.304C1581.17 608.256 1579.26 606.208 1577.34 604.16C1575.43 602.112 1573.52 599.381 1571.61 597.333C1559.49 586.411 1545.46 576.171 1528.25 566.613C1518.05 560.469 1507.21 555.008 1497.01 549.547C1482.34 541.355 1467.04 533.163 1452.38 524.971C1428.15 511.317 1407.74 491.52 1392.44 467.627C1371.4 434.176 1364.39 393.899 1370.76 344.747C1374.59 316.757 1387.98 298.325 1412.21 288.085C1424.96 282.624 1437.71 278.528 1450.46 275.115C1454.29 273.749 1458.11 273.067 1461.3 271.701C1490.63 262.827 1511.67 253.269 1530.8 240.981C1543.55 232.789 1552.48 224.597 1558.85 214.357C1578.62 182.955 1583.72 148.821 1576.07 111.957C1569.69 85.3333 1556.3 66.2187 1534.63 56.6613C1525.06 51.8827 1516.14 48.4693 1506.57 45.7387C1502.75 44.3733 1498.92 43.6907 1495.73 43.008C1482.98 39.5947 1470.23 36.1813 1458.75 30.0373C1446.64 23.8933 1438.35 15.0187 1433.88 3.41333H1467.68H1505.3C1530.16 3.41333 1555.67 3.41333 1580.53 3.41333V0ZM1580.53 0C1579.9 0 1579.9 0 1580.53 0C1555.03 0 1530.16 0 1505.3 0C1480.43 0 1454.93 0 1430.06 0C1435.16 15.7013 1445.36 25.2587 1457.48 32.0853C1472.78 40.2773 1489.99 43.6907 1505.93 48.4693C1515.5 51.2 1524.42 54.6133 1533.35 59.392C1555.03 69.632 1567.14 88.064 1572.88 113.323C1581.17 149.504 1575.43 182.955 1556.3 212.992C1549.29 223.915 1539.73 232.107 1529.52 238.933C1507.85 252.587 1484.25 261.461 1460.66 268.971C1444.09 274.432 1426.87 278.528 1410.93 285.355C1386.7 295.595 1371.4 314.709 1367.57 344.747C1361.84 389.12 1365.66 432.128 1389.25 469.675C1405.19 494.933 1425.6 514.048 1449.82 527.701C1475.33 542.037 1500.83 555.691 1525.7 570.027C1541 578.901 1555.67 588.459 1568.42 600.747C1574.79 605.525 1578.62 612.352 1585 615.765C1585 570.027 1585 524.971 1585 479.915C1583.72 478.549 1582.45 477.867 1581.17 477.867C1579.9 477.867 1578.62 478.549 1577.34 478.549C1560.77 482.645 1544.83 487.424 1528.25 489.472C1521.87 490.155 1516.13 490.155 1510.4 490.155C1482.98 490.155 1457.48 484.011 1434.52 464.213C1413.48 446.464 1401.37 421.888 1400.73 391.851C1399.45 358.4 1412.21 331.776 1442.81 318.123C1464.49 307.883 1486.81 303.104 1509.76 303.104C1523.79 303.104 1538.45 305.152 1552.48 309.248C1561.4 311.979 1569.69 315.392 1577.98 318.805C1579.26 319.488 1580.53 320.171 1582.45 320.171C1583.72 320.171 1585 319.488 1585.63 318.123C1585.63 214.357 1585.63 110.592 1585.63 6.82667C1585 1.36533 1584.36 0 1580.53 0Z" fill="#0AE29F"/>
<path d="M23.5174 665.602C27.9806 665.602 32.4438 665.602 36.907 665.602C54.7598 665.602 71.3374 670.38 86.0022 679.938C126.809 705.879 148.487 747.522 152.95 806.914C154.225 826.028 154.225 844.461 152.95 861.527C152.313 867.671 152.313 874.498 151.675 880.642C151.037 892.93 150.4 905.901 148.487 918.189C146.574 931.842 144.024 945.495 133.822 955.053C126.809 962.562 117.882 965.293 109.593 967.341C88.5526 972.802 66.2366 975.533 41.3702 975.533H31.8062H23.5174C14.591 975.533 3.75181 975.533 -6.44979 974.167V931.159C-5.81219 930.477 -3.89939 929.794 -1.98659 929.794H0.56381C8.21501 929.794 16.5038 929.111 24.155 929.111H28.6182C46.471 927.746 60.4982 925.015 72.6126 919.554C91.7406 911.362 106.405 895.661 114.694 873.815C122.345 853.335 126.171 829.442 125.533 802.135C124.896 781.655 121.07 763.906 113.419 748.887C97.479 716.802 73.2502 699.735 42.0078 699.735H40.7326C29.8934 699.735 19.0542 701.783 8.85261 703.831C5.66461 704.514 1.83901 705.196 -1.34899 705.879C-2.62419 705.879 -3.26179 705.879 -3.89939 705.879C-5.17459 705.879 -5.81219 705.879 -6.44979 705.196V666.284C2.47661 665.602 12.0406 665.602 23.5174 665.602ZM23.5174 662.871C12.6782 662.871 1.83901 662.871 -9.00019 664.236C-9.00019 677.89 -9.00019 691.543 -9.00019 705.196C-7.72499 707.244 -5.81219 707.927 -3.89939 707.927C-3.26179 707.927 -1.98659 707.927 -0.71139 707.927C13.3158 705.879 26.7054 701.783 41.3702 701.783H42.0078C73.8878 701.783 96.2038 718.85 110.869 749.57C118.52 765.954 122.345 783.02 122.345 802.135C122.983 826.711 120.433 850.605 111.506 873.133C103.855 894.295 89.8278 909.314 70.6998 917.506C56.6726 923.65 42.0078 925.698 27.343 927.063C17.779 927.746 8.85261 928.429 -0.71139 928.429C-1.34899 928.429 -2.62419 928.429 -3.26179 928.429C-5.81219 928.429 -8.36259 929.111 -10.2754 931.842C-10.2754 947.543 -10.2754 963.245 -10.2754 978.263C0.56381 979.629 11.403 979.629 22.2422 979.629C28.6182 979.629 34.9942 979.629 41.3702 979.629C64.3238 979.629 87.2774 976.898 110.231 971.437C119.157 969.389 128.084 965.975 135.097 958.466C145.937 948.226 148.487 934.573 150.4 920.237C152.95 901.122 152.95 882.007 154.225 863.575C155.501 845.143 155.501 826.711 154.225 808.279C151.675 750.935 131.272 705.879 87.2774 677.207C71.975 667.65 54.7598 662.871 36.907 662.871C32.4438 662.871 27.9806 662.871 23.5174 662.871Z" fill="#0AE29F"/>
<path d="M213.514 1013.76V1016.49C221.165 1016.49 228.179 1017.86 235.193 1021.27H195.661C197.574 1019.22 199.487 1018.54 201.4 1017.86C205.225 1017.18 209.689 1016.49 213.514 1016.49V1013.76ZM213.514 1013.76C209.051 1013.76 205.225 1014.44 200.762 1015.13C196.937 1015.81 193.111 1019.22 190.561 1024C209.051 1024 226.904 1024 245.394 1024C235.193 1017.18 224.991 1013.76 213.514 1013.76Z" fill="#6335E9"/>
<path d="M215.435 280.578C219.898 280.578 224.362 280.578 228.187 281.261C246.678 283.992 261.342 292.184 271.544 305.837C290.672 330.413 300.874 361.816 303.424 400.728C304.699 424.621 300.874 447.149 295.773 467.629C289.397 496.984 286.209 522.242 287.484 546.136C288.122 563.885 289.397 580.952 291.947 598.701C297.686 639.661 311.075 673.112 331.478 701.101C343.593 717.485 356.345 733.869 368.459 750.253C383.124 770.05 399.702 791.213 420.105 807.597C441.146 824.663 457.086 843.095 469.838 863.575C481.314 882.007 493.429 899.074 505.543 914.775C522.758 936.621 543.799 953.687 563.565 970.754L571.854 977.581C585.881 989.869 594.807 1003.52 599.908 1020.59H531.685C531.685 1019.91 531.047 1019.22 530.41 1017.86C517.658 993.282 499.805 972.802 483.227 955.053C462.824 933.89 439.87 917.506 411.816 904.535C383.762 891.565 363.996 869.037 353.157 837.634L349.331 826.711C343.593 810.327 337.217 792.578 330.841 776.194C323.19 756.397 312.988 739.33 302.786 721.581C300.236 717.485 298.323 714.071 296.41 709.975C286.209 692.226 279.195 673.794 275.37 654.68C268.994 618.498 266.443 582.317 264.53 542.04C262.618 511.32 265.806 477.869 273.457 444.418C280.47 413.016 279.833 386.392 272.182 361.133C261.98 330.413 240.939 311.981 215.435 311.981C207.784 311.981 200.133 313.346 192.482 316.077C169.528 325.634 152.313 341.336 134.46 358.402C109.594 382.296 89.1904 397.997 68.1496 410.285C59.2232 415.746 49.6592 420.525 40.7328 425.986C24.7928 434.178 8.8528 443.053 -6.4496 452.61V383.661L-1.9864 382.978C37.5448 374.786 66.8744 362.498 92.3784 344.749C100.667 339.288 108.956 332.461 116.607 326.317C127.446 318.125 138.286 309.25 149.762 302.424C172.716 287.405 194.394 280.578 215.435 280.578ZM215.435 277.848C191.844 277.848 169.528 286.722 147.85 300.376C128.084 313.346 110.231 329.048 90.4656 342.701C61.7736 362.498 30.5312 372.738 -2.624 380.248C-4.5368 380.248 -7.0872 380.93 -9 381.613C-9 406.872 -9 432.13 -9 457.389C16.504 441.005 43.2832 428.034 69.4248 413.016C93.6536 398.68 115.332 380.93 135.735 361.133C152.95 344.066 170.803 328.365 193.119 319.49C200.77 316.76 208.422 315.394 215.435 315.394C239.664 315.394 260.067 332.461 269.631 362.498C278.558 389.805 277.282 417.112 270.906 444.418C263.255 477.186 260.067 510.637 261.98 544.088C263.893 581.634 266.443 619.863 272.819 656.727C276.645 677.207 283.658 695.639 293.86 712.706C305.974 733.869 319.364 754.349 328.928 778.242C336.579 798.722 344.23 819.202 351.244 839.682C362.721 872.45 383.124 894.978 411.178 907.949C437.32 920.237 460.911 936.621 481.952 958.466C499.805 976.898 516.382 996.695 529.134 1020.59C529.772 1021.95 530.41 1023.32 530.41 1024C554.638 1024 579.505 1024 603.734 1024C599.27 1003.52 588.431 987.821 574.404 975.533C551.45 955.735 527.859 937.303 508.094 912.727C494.704 896.343 483.227 879.959 472.388 862.21C458.361 839.682 441.146 821.25 422.018 805.549C402.89 789.165 386.312 769.367 371.01 748.205C358.895 731.821 346.143 715.437 334.029 699.053C312.35 669.698 300.236 635.565 294.498 598.018C291.947 580.952 290.672 563.202 290.034 546.136C288.759 519.512 292.585 493.57 298.323 468.312C303.424 446.466 307.25 423.938 305.974 400.728C304.062 364.546 295.135 331.778 274.094 304.472C262.618 289.453 246.678 281.261 229.462 279.213C224.362 277.848 219.898 277.848 215.435 277.848Z" fill="#0AE29F"/>
<path d="M857.494 64.843C862.594 64.843 867.058 66.2084 870.883 69.6217C876.622 74.4004 881.085 80.5444 884.273 88.7364C890.011 105.12 891.924 122.187 888.736 141.984V142.667C886.823 154.955 884.91 167.243 879.81 178.166C877.259 183.627 873.434 186.358 868.97 186.358C866.42 186.358 863.87 185.675 861.319 184.31C849.205 178.166 839.003 167.243 830.077 150.859C822.426 136.523 817.962 123.552 817.325 110.582C817.325 105.803 817.962 101.707 819.238 96.9284V95.563C823.701 79.8617 842.191 64.843 857.494 64.843ZM857.494 61.4297C839.641 61.4297 821.15 78.4964 816.687 95.563C815.412 101.024 814.137 105.803 814.137 111.264C814.774 126.283 819.875 139.936 826.889 152.907C835.178 167.243 845.379 179.531 859.406 187.04C862.594 188.406 865.782 189.771 868.333 189.771C873.434 189.771 877.897 186.358 881.085 179.531C886.823 167.926 888.736 154.955 890.649 141.984C893.199 122.87 892.562 105.12 886.186 87.371C882.998 79.179 879.172 72.3524 872.158 66.891C868.333 63.4777 863.232 61.4297 857.494 61.4297Z" fill="#0AE29F"/>
<path d="M1266.83 982.348V985.078C1276.39 985.078 1287.23 986.444 1298.71 988.492C1319.75 993.27 1332.5 1002.83 1338.24 1020.58H1197.33C1204.98 1004.88 1217.73 994.636 1236.86 988.492C1245.79 985.761 1255.35 984.396 1266.19 984.396V982.348H1266.83ZM1266.83 982.348C1256.63 982.348 1247.06 983.713 1236.86 986.444C1218.37 992.588 1202.43 1002.83 1194.14 1023.99C1243.24 1023.99 1292.97 1023.99 1342.07 1023.99C1335.05 1000.1 1319.11 990.54 1299.35 986.444C1288.51 983.713 1277.67 982.348 1266.83 982.348Z" fill="#0AE29F"/>
<path d="M1202.43 2.73067H1322.94C1321.03 6.144 1318.48 8.87467 1315.93 11.6053C1299.99 25.2587 1280.86 32.0853 1259.82 32.0853C1257.91 32.0853 1256.63 32.0853 1254.72 32.0853C1230.49 30.72 1213.27 21.1627 1202.43 2.73067ZM1197.33 0C1210.09 24.576 1230.49 33.4507 1254.08 34.816C1255.99 34.816 1257.27 34.816 1259.18 34.816C1280.22 34.816 1299.35 28.672 1316.57 13.6533C1321.03 10.24 1323.58 5.46133 1326.13 0C1284.05 0 1240.69 0 1197.33 0Z" fill="#0AE29F"/>
<path d="M1289.79 479.231C1292.34 479.231 1294.89 479.913 1298.08 481.961C1307.01 486.74 1313.38 495.615 1319.76 503.807L1322.95 507.903C1337.61 527.7 1353.55 548.863 1370.13 568.66C1375.23 574.804 1380.33 580.265 1385.43 586.409C1405.2 608.937 1426.24 632.148 1443.45 658.089C1453.02 672.425 1463.22 686.079 1472.78 699.732C1486.17 718.847 1500.2 737.961 1512.95 758.441C1526.34 779.604 1531.44 797.353 1528.89 816.468C1523.79 857.428 1500.84 888.148 1468.32 896.34C1463.86 897.705 1459.39 898.388 1454.93 898.388C1443.45 898.388 1423.05 894.292 1414.76 864.937C1411.57 854.015 1409.66 843.092 1407.11 832.169C1405.84 826.708 1404.56 821.246 1403.29 815.103C1394.36 776.191 1375.87 749.567 1347.18 735.231C1325.5 724.308 1301.91 718.847 1275.13 718.847C1264.93 718.847 1254.09 719.529 1243.25 720.895C1223.48 723.625 1205.63 732.5 1188.41 740.692C1176.94 746.153 1164.19 751.615 1150.16 752.297C1128.48 752.297 1106.16 732.5 1100.43 708.607C1097.24 696.319 1101.7 684.031 1111.26 676.521C1118.28 671.06 1126.57 666.281 1135.49 662.868C1168.01 650.58 1195.43 627.369 1217.11 591.871C1229.86 571.391 1241.97 549.545 1256 522.239L1258.55 516.777C1264.29 505.172 1270.03 494.249 1278.32 484.692C1283.42 481.279 1286.6 479.231 1289.79 479.231ZM1289.79 476.5C1285.33 476.5 1282.14 478.548 1277.68 483.327C1268.11 494.249 1261.74 507.903 1255.36 520.873C1243.25 544.767 1230.5 567.977 1216.47 590.505C1196.07 623.273 1169.92 647.849 1136.13 660.82C1127.2 664.233 1118.92 668.329 1111.26 674.473C1101.06 682.665 1095.96 695.636 1099.79 709.289C1105.53 734.548 1129.12 755.028 1151.43 755.028C1165.46 754.345 1178.21 749.567 1190.96 743.423C1208.82 735.231 1226.03 726.356 1245.16 723.625C1256 722.26 1266.2 721.577 1277.04 721.577C1301.27 721.577 1325.5 726.356 1348.45 737.961C1377.78 752.98 1395 780.969 1403.29 815.785C1407.11 832.169 1410.3 849.236 1414.76 865.62C1421.78 890.879 1438.99 900.436 1456.84 900.436C1461.31 900.436 1466.41 899.753 1470.87 898.388C1507.21 888.831 1528.89 854.697 1533.36 815.785C1535.91 793.257 1528.26 773.46 1516.78 755.711C1495.1 720.895 1470.23 689.492 1447.28 656.041C1424.96 623.273 1398.82 595.284 1373.32 566.612C1356.74 547.497 1341.44 527.017 1326.14 505.855C1318.48 495.615 1311.47 484.692 1300.63 478.548C1296.17 477.865 1292.98 476.5 1289.79 476.5Z" fill="#6335E9"/>
<path d="M924.439 766.633C931.453 766.633 937.191 769.364 942.929 774.825C954.406 787.113 955.044 802.132 954.406 819.881C954.406 827.39 953.769 834.9 953.131 842.409C952.493 851.284 951.856 860.158 951.218 869.033C950.581 887.465 952.493 905.897 954.406 922.281C958.232 951.636 965.883 976.212 977.997 997.374C979.273 999.422 980.548 1001.47 981.185 1003.52C984.373 1008.98 988.199 1015.12 990.749 1021.95H767.589C772.69 989.182 780.341 957.097 787.993 925.694L792.456 907.945C801.382 871.081 813.497 833.534 842.189 806.91C867.055 783.7 892.559 771.412 920.613 767.998C922.526 766.633 923.801 766.633 924.439 766.633ZM924.439 763.902C923.164 763.902 921.889 763.902 920.613 763.902C890.646 767.316 863.867 781.652 840.913 803.497C812.221 830.121 799.469 866.985 790.543 905.897C781.617 944.126 772.053 981.673 765.677 1020.59C765.677 1021.27 765.039 1022.63 765.039 1023.32C841.551 1023.32 918.063 1023.32 994.575 1023.32C991.387 1012.39 985.649 1004.2 980.548 995.326C967.796 972.798 960.782 947.54 957.594 921.598C955.044 903.849 953.769 886.1 953.769 868.35C954.406 851.966 956.319 835.582 956.957 819.198C957.594 802.132 957.594 785.065 944.842 772.094C938.466 766.633 931.453 763.902 924.439 763.902Z" fill="#6335E9"/>
<path d="M1508.48 302.418C1518.05 302.418 1528.25 303.101 1539.09 305.149C1548.65 306.514 1558.21 310.61 1567.78 314.024C1572.24 316.072 1577.34 318.12 1582.44 319.485V477.864C1576.07 479.912 1569.05 481.277 1562.68 483.325C1544.19 488.104 1526.97 490.834 1511.03 490.834C1496.37 490.834 1482.34 488.786 1468.95 484.69C1438.35 475.133 1403.91 442.365 1400.09 398.674C1397.54 364.541 1410.29 334.504 1435.16 321.533C1457.47 308.562 1481.7 302.418 1508.48 302.418ZM1508.48 299.688C1482.98 299.688 1457.47 305.149 1433.24 318.802C1406.47 333.138 1394.35 365.224 1396.9 398.674C1400.73 441 1433.24 476.498 1467.67 486.738C1481.7 490.834 1496.37 492.882 1510.39 492.882C1527.61 492.882 1545.46 490.152 1562.68 485.373C1569.69 483.325 1577.34 481.277 1584.36 479.229C1584.36 425.298 1584.36 370.685 1584.36 316.754C1569.05 311.976 1555.03 303.784 1539.09 301.736C1529.52 300.37 1518.68 299.688 1508.48 299.688Z" fill="#6335E9"/>
<path d="M40.7328 701.102C45.8336 701.102 50.2968 701.784 54.76 702.467C87.2776 708.611 108.956 732.504 119.158 772.099C125.534 797.358 124.896 825.347 117.245 857.433C108.956 892.249 90.4656 913.411 61.136 921.603C40.7328 927.747 20.3296 927.747 -3.8992 927.747H-6.4496V875.864C-5.1744 874.499 -3.8992 874.499 -1.3488 874.499H-0.7112C1.2016 874.499 3.1144 874.499 5.0272 874.499H6.3024H7.5776C14.5912 874.499 20.9672 874.499 27.9808 873.134C64.324 866.307 86.64 834.904 85.3648 793.944C84.7272 768.003 70.0624 749.571 48.384 745.475C47.1088 744.792 44.5584 744.11 42.008 744.11C38.82 744.11 35.632 744.11 32.444 744.792C20.9672 746.84 10.7656 750.254 -1.3488 753.667H-1.9864C-3.2616 754.35 -3.8992 754.35 -4.5368 754.35C-5.1744 754.35 -5.1744 754.35 -5.812 753.667V706.563C-0.0735998 705.88 6.3024 704.515 12.0408 703.15C19.692 702.467 30.5312 701.102 40.7328 701.102ZM40.7328 698.371C31.1688 698.371 20.9672 699.736 11.4032 701.784C4.3896 703.15 -1.9864 704.515 -9 705.198C-9 722.264 -9 739.331 -9 755.715C-7.7248 757.08 -6.4496 757.763 -5.1744 757.763C-3.8992 757.763 -2.624 757.08 -0.7112 756.398C10.128 752.984 21.6048 748.888 32.444 747.523C35.632 746.84 38.82 746.84 42.008 746.84C44.5584 746.84 46.4712 746.84 49.0216 747.523C70.0624 750.936 83.452 768.686 84.0896 793.262C85.3648 833.539 63.6864 862.894 28.6184 869.72C22.2424 871.086 15.2288 871.086 8.8528 871.086C7.5776 871.086 6.94 871.086 5.6648 871.086C3.752 871.086 1.8392 871.086 -0.0735998 871.086C-3.2616 871.086 -6.4496 871.086 -8.3624 874.499C-8.3624 892.931 -8.3624 912.046 -8.3624 930.478C-6.4496 930.478 -5.1744 930.478 -3.2616 930.478C19.0544 930.478 40.7328 930.478 62.4112 923.651C93.016 914.776 112.144 892.249 120.433 857.433C127.446 828.761 129.359 799.406 122.346 770.734C112.782 732.504 91.7408 705.88 56.0352 699.054C50.2968 698.371 45.8336 698.371 40.7328 698.371Z" fill="#6335E9"/>
<path d="M976.723 2.73067H1025.82V8.192C1025.82 15.0187 1025.82 21.8453 1025.82 28.672C1025.82 36.1813 1025.18 43.008 1023.27 49.8347C1022.63 53.248 1020.08 58.7093 1014.98 58.7093C1013.07 58.7093 1011.15 58.0267 1008.6 56.6613C1006.69 55.296 1004.78 53.9307 1002.86 51.8827C992.026 37.5467 982.462 21.1627 976.723 2.73067ZM973.535 0C979.274 20.48 988.838 38.2293 1002.23 53.248C1004.14 55.296 1006.05 57.344 1007.97 58.7093C1010.52 60.7573 1013.07 61.44 1015.62 61.44C1020.72 61.44 1024.54 57.344 1026.46 50.5173C1028.37 43.6907 1029.01 36.1813 1029.01 28.672C1029.01 19.1147 1029.01 9.55733 1029.01 0C1009.88 0 992.026 0 973.535 0Z" fill="#0AE29F"/>
<path d="M1088.3 129.016V131.746C1108.07 131.746 1125.28 138.573 1146.32 147.448C1169.92 157.688 1197.97 169.293 1226.66 176.12C1231.12 176.802 1236.86 178.168 1240.69 180.898C1252.17 189.09 1254.08 194.552 1248.98 207.522C1247.07 212.984 1244.51 217.08 1241.96 220.493L1239.41 223.906C1231.76 234.146 1224.11 244.386 1216.46 255.309C1196.06 283.298 1182.03 309.922 1173.74 338.594C1166.73 361.122 1164.18 387.064 1165.45 415.736C1165.45 420.514 1165.45 425.293 1165.45 429.389C1165.45 437.581 1165.45 443.725 1165.45 449.869C1164.81 463.522 1163.54 479.224 1156.53 494.242C1152.7 502.434 1147.6 509.261 1141.22 514.04C1136.76 517.453 1131.66 519.501 1127.2 519.501C1117.63 519.501 1109.34 511.992 1104.88 499.021C1100.42 486.733 1099.78 473.08 1099.14 459.426V456.696C1098.5 446.456 1098.5 436.216 1098.5 425.976C1098.5 415.053 1098.5 403.448 1097.87 391.842C1096.59 365.901 1096.59 339.277 1096.59 314.018V298.317C1096.59 283.298 1095.32 267.597 1092.13 248.482C1090.22 234.829 1087.03 221.176 1083.84 208.205C1081.93 201.378 1080.65 194.552 1079.38 188.408C1078.74 184.994 1078.1 182.264 1076.83 178.85C1074.28 168.61 1071.73 158.37 1072.36 147.448C1072.36 140.621 1074.91 133.112 1085.11 132.429C1086.39 132.429 1087.67 132.429 1088.3 132.429V129.016ZM1088.3 129.016C1087.03 129.016 1085.75 129.016 1084.48 129.016C1074.91 129.698 1069.81 135.842 1069.17 146.765C1068.54 161.101 1073 174.754 1076.19 188.408C1080.65 208.205 1086.39 228.002 1089.58 248.482C1092.13 264.866 1094.04 281.25 1094.04 298.317C1094.04 329.037 1093.4 360.44 1095.32 391.16C1096.59 413.005 1095.32 434.168 1096.59 456.013C1097.23 470.349 1097.87 485.368 1102.33 499.021C1107.43 514.04 1116.99 521.549 1127.2 521.549C1132.3 521.549 1137.4 519.501 1142.5 516.088C1149.51 511.309 1154.61 503.8 1159.08 495.608C1166.09 481.272 1168 465.57 1168.64 449.869C1169.28 440.312 1168.64 430.072 1168.64 415.736C1168 393.208 1169.28 365.901 1176.93 339.277C1185.86 308.557 1201.16 281.933 1219.01 257.357C1227.3 245.752 1236.23 234.146 1244.51 222.541C1247.7 218.445 1249.62 213.666 1251.53 208.888C1256.63 195.234 1255.35 187.725 1241.96 178.85C1237.5 176.12 1232.4 174.754 1227.3 173.389C1199.88 166.562 1173.1 156.322 1146.96 144.717C1127.83 137.208 1108.71 129.016 1088.3 129.016Z" fill="#6335E9"/>
<path d="M42.6456 746.832C43.2832 746.832 43.9208 746.832 44.5584 746.832C61.7736 747.515 75.8008 759.803 81.5392 778.235C86.64 797.35 84.0896 819.195 74.5256 836.944C65.5992 854.011 50.9344 865.616 34.3568 869.712C24.7928 871.76 15.2288 872.443 5.0272 872.443H3.1144H0.563999C-1.9864 872.443 -3.8992 872.443 -6.4496 872.443V757.755C-4.5368 757.072 -2.624 756.39 -0.0736017 755.707L1.8392 755.024C15.2288 750.928 28.6184 746.832 42.6456 746.832ZM42.6456 744.102C27.3432 744.102 13.316 748.88 -1.3488 753.659C-3.8992 754.342 -6.4496 755.024 -9 755.707C-9 795.302 -9 834.896 -9 874.491C-5.812 874.491 -2.624 874.491 0.563999 874.491C1.8392 874.491 3.752 874.491 5.0272 874.491C15.2288 874.491 24.7928 874.491 34.9944 871.76C71.9752 862.886 95.5664 817.147 84.0896 776.87C78.3512 757.755 63.0488 744.784 45.196 744.102C44.5584 744.102 43.9208 744.102 42.6456 744.102Z" fill="#6335E9"/>
<path d="M393.955 290.817C395.868 290.817 398.418 291.499 400.969 292.182C413.083 295.595 423.922 303.105 434.762 310.614L437.312 311.979C459.628 327.681 482.582 343.382 503.622 359.083C518.925 370.006 532.952 380.246 544.429 394.582C556.543 409.601 562.282 424.619 561.006 441.686C561.644 454.657 557.818 466.262 548.254 477.867C536.14 491.521 520.838 501.761 509.361 508.587L500.434 514.049C483.219 524.289 466.004 535.211 449.426 547.499C441.775 552.961 436.037 557.057 429.661 560.47C426.473 561.835 423.285 563.201 420.097 563.201C411.808 563.201 406.07 555.691 405.432 543.403C405.432 535.894 405.432 527.702 407.345 518.145C411.808 488.107 410.533 460.118 404.794 433.494C402.244 421.206 398.418 408.235 395.23 396.63C391.405 382.977 387.579 368.641 385.029 354.987C381.841 341.334 379.29 326.315 379.928 310.614C380.566 297.643 385.029 290.817 393.955 290.817ZM393.955 288.086C383.754 288.086 378.015 295.595 377.378 310.614C376.74 325.633 379.29 340.651 382.478 355.67C387.579 382.294 396.506 407.553 402.244 434.177C408.62 461.483 408.62 489.473 404.794 517.462C403.519 525.654 402.882 534.529 402.882 542.721C403.519 557.057 409.895 565.249 420.097 565.249C423.285 565.249 427.11 564.566 430.936 562.518C437.95 559.105 444.326 554.326 450.702 549.547C469.83 535.211 490.233 522.923 510.636 510.635C525.301 501.761 538.69 492.203 550.167 478.55C559.094 468.31 564.832 456.022 564.194 441.686C564.832 421.889 557.818 406.187 546.342 392.534C534.227 378.198 520.2 367.275 505.535 357.035C483.219 340.651 460.903 324.95 438.587 309.249C427.11 301.739 414.996 293.547 401.606 289.451C399.056 288.769 396.506 288.086 393.955 288.086Z" fill="#6335E9"/>
<path d="M867.054 873.133C868.967 873.133 870.88 874.498 873.43 876.546C881.719 885.421 884.269 901.122 878.531 912.045C874.705 919.554 870.88 922.968 865.141 923.65C862.591 923.65 860.041 922.285 857.49 920.237C850.477 914.093 849.839 905.218 850.477 899.757C851.114 889.517 856.215 878.594 861.953 874.498C864.504 873.816 865.779 873.133 867.054 873.133ZM867.054 870.402C865.141 870.402 863.229 871.085 860.678 872.45C849.202 879.277 840.275 909.314 856.215 922.285C858.765 925.016 861.953 925.698 865.141 926.381C872.793 925.698 877.256 919.554 880.444 913.41C886.82 901.805 883.632 884.056 874.705 875.181C872.793 872.45 870.242 870.402 867.054 870.402Z" fill="#6335E9"/>
<path d="M433.488 2.73067H511.275L511.913 8.192C512.55 15.7013 513.188 22.528 514.463 30.0373C515.738 42.3253 518.926 54.6133 520.839 66.2187C522.752 76.4587 525.302 86.6987 526.577 96.9387C528.49 108.544 529.765 118.784 527.215 129.024C525.94 136.533 524.027 142.677 518.926 146.091C516.376 148.821 513.188 150.187 510 150.187C506.174 150.187 501.711 148.139 497.248 144.043C489.597 135.851 485.133 124.928 481.308 114.688C478.757 107.861 476.207 101.717 474.294 94.8907C469.831 81.92 464.73 68.2667 458.354 55.9787C456.441 51.2 453.891 46.4213 451.978 42.3253C445.602 29.3547 438.589 16.384 433.488 2.73067ZM429.662 0C437.313 19.7973 446.877 38.2293 456.441 57.344C465.368 75.776 471.744 96.256 478.757 116.053C483.221 126.976 487.684 137.899 495.973 146.091C500.436 150.869 505.537 152.917 510 152.917C513.825 152.917 517.013 151.552 520.839 148.821C526.577 144.043 528.49 137.216 529.765 129.707C532.316 118.784 531.041 107.861 529.128 96.9387C525.94 74.4107 519.564 52.5653 516.376 30.0373C515.738 19.7973 514.463 10.24 513.825 0C485.771 0 457.717 0 429.662 0Z" fill="#0AE29F"/>
<path d="M427.755 1004.2C430.306 1004.2 433.494 1004.88 436.682 1006.25C445.608 1009.66 452.622 1015.12 457.723 1021.95H409.265C409.265 1021.27 409.265 1021.27 409.903 1020.58C412.453 1012.39 417.554 1004.2 427.755 1004.2ZM427.755 1000.79C418.191 1000.79 411.178 1006.93 407.352 1018.53C406.715 1020.58 406.077 1021.95 405.439 1024C424.567 1024 443.695 1024 462.823 1024C456.447 1013.76 448.159 1006.93 437.957 1003.52C434.131 1001.47 430.943 1000.79 427.755 1000.79Z" fill="#6335E9"/>
<path d="M206.505 374.778C213.518 374.778 220.532 378.874 224.995 387.066C227.545 391.162 228.821 395.258 230.096 401.402C232.646 415.738 231.371 430.756 229.458 445.092C228.821 449.188 228.821 453.284 228.183 457.38C226.27 479.908 225.633 497.658 226.908 514.724L227.545 527.695C228.821 545.444 229.458 563.194 230.096 580.943C230.733 601.423 228.183 618.49 223.082 633.508C219.257 643.748 214.156 649.21 205.867 649.21C203.317 649.21 200.766 648.527 198.216 647.844C189.927 645.114 181.638 640.335 172.074 632.826L168.249 630.095C144.02 611.663 118.516 591.866 93.6493 572.751C84.7229 565.924 75.7965 558.415 68.7829 548.858C50.9301 526.33 49.6549 505.85 64.9573 484.004C68.7829 477.86 73.8837 472.399 80.2597 467.62C90.4613 459.428 100.663 451.236 110.227 443.727C127.442 430.074 145.295 416.42 161.873 400.719C171.437 391.844 183.551 381.604 198.853 376.143C202.041 374.778 204.592 374.778 206.505 374.778ZM206.505 372.047C203.954 372.047 200.766 372.73 198.216 373.412C184.189 378.191 172.074 387.748 160.597 398.671C134.456 422.564 105.764 443.044 78.9845 465.572C72.6085 470.351 67.5077 475.812 62.4069 482.639C45.1917 507.215 49.6549 529.06 66.2325 550.906C73.8837 560.463 82.8102 567.972 91.7366 574.799C117.878 595.279 144.02 615.076 170.161 634.874C179.088 641.7 188.014 647.162 197.578 650.575C200.766 651.258 203.317 651.94 205.867 651.94C214.793 651.94 221.807 645.796 225.633 634.874C231.371 617.124 233.284 599.375 232.646 580.943C232.009 558.415 230.733 536.57 229.458 514.724C228.183 495.61 229.458 476.495 230.733 457.38C232.009 438.266 235.834 419.834 232.646 400.719C231.371 395.258 230.096 389.796 227.545 385.018C222.445 376.826 214.793 372.047 206.505 372.047Z" fill="#6335E9"/>
<path d="M898.309 432.133C900.86 432.133 902.773 432.816 905.323 433.498H906.598C916.8 436.229 926.364 443.738 932.102 454.661C937.841 466.266 939.753 479.237 935.928 490.842C932.74 501.082 927.639 509.957 920.625 518.149C913.612 526.341 906.598 533.168 899.584 540.677C895.759 544.773 891.933 548.869 888.108 552.965C867.067 575.493 846.026 601.434 820.522 634.885C807.132 652.634 790.555 672.432 768.239 686.085C754.849 694.96 742.735 699.056 730.62 699.738C729.983 699.738 729.345 699.738 728.708 699.738C721.694 699.738 716.593 697.008 713.405 691.546C709.58 685.402 710.855 679.941 714.043 671.749C717.231 664.24 721.056 656.048 725.52 649.221C748.473 617.818 766.326 583.685 778.44 546.821C787.367 520.197 798.844 499.034 814.146 483.333C829.448 466.266 847.939 451.93 867.704 441.008C878.544 434.864 888.108 432.133 897.034 431.45C897.672 432.133 898.309 432.133 898.309 432.133ZM898.309 429.402C897.672 429.402 897.034 429.402 896.396 429.402C885.557 430.085 875.356 434.181 865.792 439.642C846.026 451.248 828.173 464.901 811.596 482.65C795.018 500.4 783.541 522.928 775.252 547.504C763.138 585.05 745.285 618.501 722.969 649.221C717.868 656.048 714.68 663.557 710.855 671.749C707.667 679.258 705.116 686.768 710.217 694.277C714.68 701.104 721.056 703.152 727.432 703.152C728.07 703.152 728.708 703.152 729.983 703.152C744.01 702.469 756.762 696.325 768.239 688.816C788.642 675.845 805.22 657.413 821.16 636.933C842.838 608.944 865.154 580.954 888.745 555.696C899.584 544.09 911.061 533.168 921.263 520.88C928.277 512.688 933.377 503.13 937.203 492.208C944.854 466.949 929.552 436.912 905.961 431.45C904.685 430.085 901.497 429.402 898.309 429.402Z" fill="#6335E9"/>
<path d="M1296.81 572.746V575.477C1303.18 575.477 1310.83 578.207 1319.76 585.034C1340.16 600.053 1357.38 618.485 1370.77 641.013C1377.78 652.618 1381.61 662.175 1383.52 671.733C1384.16 675.829 1383.52 679.925 1381.61 682.655C1379.69 685.386 1377.14 687.434 1373.95 688.117C1369.49 688.799 1365.67 689.482 1361.84 689.482C1361.2 689.482 1360.56 689.482 1359.93 689.482C1340.16 688.117 1321.03 685.386 1303.18 681.973C1289.15 679.242 1273.85 675.829 1260.46 667.637C1250.26 661.493 1245.8 649.887 1248.99 636.917C1252.81 620.533 1259.19 606.197 1267.48 595.957C1278.31 581.621 1287.24 575.477 1296.81 575.477V572.746ZM1296.81 572.746C1285.97 572.746 1275.76 580.255 1265.56 593.909C1256 606.197 1250.26 620.533 1246.43 636.234C1243.25 650.57 1248.35 662.858 1259.19 669.685C1272.58 677.877 1287.24 681.29 1302.54 684.703C1321.67 688.117 1340.8 690.847 1359.93 692.213C1360.56 692.213 1361.2 692.213 1361.84 692.213C1366.3 692.213 1370.13 691.53 1374.59 690.847C1382.88 689.482 1387.98 680.607 1386.07 671.733C1384.16 660.127 1379.06 649.887 1372.68 640.33C1358.65 617.802 1341.44 598.687 1321.03 583.669C1312.11 575.477 1303.82 572.746 1296.81 572.746Z" fill="#6335E9"/>
<path d="M154.221 499.031V501.762C161.872 501.762 166.336 508.589 168.886 514.05C172.074 520.877 173.349 527.021 173.349 533.165C173.349 542.039 168.886 551.597 161.235 551.597C158.684 551.597 156.134 550.914 152.946 548.866L151.033 548.183C147.208 546.135 144.02 543.405 141.469 539.991C137.006 534.53 134.456 529.069 133.818 522.925C133.818 520.194 135.093 517.463 136.368 514.05C140.832 505.858 146.57 501.762 154.221 501.762V499.031ZM154.221 499.031C145.932 499.031 138.281 503.81 133.818 512.685C132.543 516.098 131.268 519.511 131.268 523.607C131.905 530.434 135.093 536.578 139.556 542.039C143.382 546.818 147.845 548.866 152.308 552.279C155.496 554.327 158.684 555.693 161.872 555.693C170.799 555.693 176.537 544.77 176.537 534.53C176.537 527.703 174.624 520.877 172.074 514.05C168.248 505.175 162.51 499.031 154.221 499.031C154.859 499.031 154.221 499.031 154.221 499.031Z" fill="#0AE29F"/>
</g>
</g>
<defs>
<clipPath id="clip0_1673:11168">
<rect width="1594" height="1024" fill="white" transform="translate(-9)"/>
</clipPath>
</defs>
</svg>
