<svg width="87" height="69" viewBox="0 0 87 69" fill="none" xmlns="http://www.w3.org/2000/svg">
<path d="M58.2 36.6L59.1638 36.8667L59.3945 36.033L58.6027 35.6847L58.2 36.6ZM53 5.6L52.3064 4.87968L52.2996 4.88623L52.2929 4.8929L53 5.6ZM80.8 5.8L81.5071 5.09289L81.5007 5.08647L81.4941 5.08016L80.8 5.8ZM85.2 27.6L86.1701 27.8425L86.1702 27.8425L85.2 27.6ZM80.8 39.6L79.8797 39.2089L79.876 39.2176L79.8724 39.2264L80.8 39.6ZM69.2 68.4L69.2 69.4L69.8753 69.4L70.1276 68.7736L69.2 68.4ZM49.4 68.4L48.4362 68.1333L48.0857 69.4L49.4 69.4L49.4 68.4ZM11 36.6L11.9638 36.8667L12.1945 36.033L11.4027 35.6847L11 36.6ZM5.8 5.6L5.10636 4.87968L5.09957 4.88622L5.0929 4.89289L5.8 5.6ZM33.6 5.8L34.3071 5.09289L34.3007 5.08647L34.2941 5.08016L33.6 5.8ZM38 27.6L38.9701 27.8425L38 27.6ZM33.6 39.6L32.6797 39.2089L32.676 39.2176L32.6724 39.2264L33.6 39.6ZM22 68.4L22 69.4L22.6753 69.4L22.9276 68.7736L22 68.4ZM2.2 68.4L1.23622 68.1333L0.885685 69.4L2.2 69.4L2.2 68.4ZM58.6027 35.6847C55.4415 34.2938 52.9989 32.2213 51.2437 29.4631L49.5563 30.5369C51.5345 33.6454 54.2918 35.9729 57.7973 37.5153L58.6027 35.6847ZM51.2437 29.4631C49.4938 26.7133 48.6 23.4391 48.6 19.6L46.6 19.6C46.6 23.7609 47.5729 27.4201 49.5563 30.5369L51.2437 29.4631ZM48.6 19.6C48.6 14.0954 50.319 9.69525 53.7071 6.30711L52.2929 4.8929C48.481 8.70475 46.6 13.638 46.6 19.6L48.6 19.6ZM53.6937 6.32032C57.0843 3.05528 61.4248 1.4 66.8 1.4L66.8 -0.600001C60.9752 -0.600001 56.1157 1.21138 52.3064 4.87968L53.6937 6.32032ZM66.8 1.4C72.1638 1.4 76.5746 3.11472 80.1059 6.51985L81.4941 5.08016C77.5587 1.28528 72.6363 -0.6 66.8 -0.600001L66.8 1.4ZM80.0929 6.50711C83.4857 9.89994 85.2 14.2361 85.2 19.6L87.2 19.6C87.2 13.7639 85.3143 8.90007 81.5071 5.09289L80.0929 6.50711ZM85.2 19.6C85.2 22.1824 84.8773 24.7677 84.2299 27.3575L86.1702 27.8425C86.856 25.099 87.2 22.3509 87.2 19.6L85.2 19.6ZM84.2299 27.3575C83.5834 29.9435 82.1431 33.8831 79.8797 39.2089L81.7203 39.9911C83.9902 34.6503 85.4833 30.5898 86.1701 27.8425L84.2299 27.3575ZM79.8724 39.2264L68.2724 68.0264L70.1276 68.7736L81.7276 39.9736L79.8724 39.2264ZM69.2 67.4L49.4 67.4L49.4 69.4L69.2 69.4L69.2 67.4ZM50.3638 68.6667L59.1638 36.8667L57.2362 36.3333L48.4362 68.1333L50.3638 68.6667ZM11.4027 35.6847C8.24153 34.2937 5.79885 32.2213 4.04366 29.4631L2.35634 30.5369C4.33448 33.6454 7.0918 35.9729 10.5973 37.5153L11.4027 35.6847ZM4.04366 29.4631C2.29375 26.7133 1.4 23.4391 1.4 19.6L-0.599998 19.6C-0.599998 23.7609 0.372917 27.4201 2.35634 30.5369L4.04366 29.4631ZM1.4 19.6C1.4 14.0954 3.11897 9.69524 6.50711 6.30711L5.0929 4.89289C1.28104 8.70475 -0.599997 13.6379 -0.599998 19.6L1.4 19.6ZM6.49365 6.32032C9.88426 3.05528 14.2248 1.39999 19.6 1.4L19.6 -0.600005C13.7752 -0.600005 8.91575 1.21138 5.10636 4.87968L6.49365 6.32032ZM19.6 1.4C24.9638 1.4 29.3746 3.11472 32.9059 6.51985L34.2941 5.08016C30.3587 1.28527 25.4363 -0.600004 19.6 -0.600005L19.6 1.4ZM32.8929 6.50711C36.2857 9.89994 38 14.2361 38 19.6L40 19.6C40 13.7639 38.1143 8.90007 34.3071 5.09289L32.8929 6.50711ZM38 19.6C38 22.1824 37.6773 24.7677 37.0299 27.3575L38.9701 27.8425C39.656 25.099 40 22.3509 40 19.6L38 19.6ZM37.0299 27.3575C36.3834 29.9435 34.9431 33.8831 32.6797 39.2089L34.5203 39.9911C36.7902 34.6503 38.2833 30.5898 38.9701 27.8425L37.0299 27.3575ZM32.6724 39.2264L21.0724 68.0264L22.9276 68.7736L34.5276 39.9736L32.6724 39.2264ZM22 67.4L2.2 67.4L2.2 69.4L22 69.4L22 67.4ZM3.16378 68.6667L11.9638 36.8667L10.0362 36.3333L1.23622 68.1333L3.16378 68.6667Z" fill="#DEE2E6"/>
</svg>
