<svg width="52" height="85" viewBox="0 0 52 85" fill="none" xmlns="http://www.w3.org/2000/svg">
<g clip-path="url(#clip0_1551:11489)">
<path d="M30.3189 26.4805L23.2348 40.1515H35.514L21.4373 67.3201C19.9923 70.107 19.9923 73.4 21.4373 76.1868L42.5418 35.4512C43.141 34.2865 42.8872 32.699 41.7594 31.9849H44.297C46.1297 31.9849 47.3139 33.8844 46.4822 35.4928L23.418 80.0067L26.005 84.9981L51.2472 36.2692C53.5663 31.7908 50.2604 26.4805 45.1499 26.4805H30.3189ZM35.7819 31.9918C37.5935 31.9918 38.7636 33.8706 37.9459 35.4581H29.6493L31.4468 31.9918H35.7819Z" fill="white"/>
<path d="M21.683 58.5177L28.7671 44.8467H16.4879L30.5646 17.678C32.0096 14.8911 32.0096 11.5982 30.5646 8.81127L9.4601 49.5469C8.86094 50.7116 9.1147 52.2992 10.2425 53.0132H7.70491C5.87219 53.0132 4.68797 51.1137 5.51974 49.5053L28.5839 4.99144L25.9969 0L0.754661 48.7289C-1.56444 53.2073 1.74151 58.5177 6.85199 58.5177H17.7215H21.683ZM16.22 53.0063C14.4085 53.0063 13.2383 51.1276 14.056 49.54H22.3526L20.5551 53.0063H16.22Z" fill="white"/>
</g>
<defs>
<clipPath id="clip0_1551:11489">
<rect width="52" height="85" fill="white"/>
</clipPath>
</defs>
</svg>
