<svg width="172" height="85" viewBox="0 0 172 85" fill="none" xmlns="http://www.w3.org/2000/svg">
<g clip-path="url(#clip0_1551:11488)">
<path d="M30.3189 26.4805L23.2348 40.1515H35.514L21.4373 67.3201C19.9923 70.107 19.9923 73.4 21.4373 76.1868L42.5418 35.4512C43.141 34.2865 42.8872 32.699 41.7594 31.9849H44.297C46.1297 31.9849 47.3139 33.8844 46.4822 35.4928L23.418 80.0067L26.005 84.9981L51.2472 36.2692C53.5663 31.7908 50.2604 26.4805 45.1499 26.4805H30.3189ZM35.7819 31.9918C37.5935 31.9918 38.7636 33.8706 37.9459 35.4581H29.6493L31.4468 31.9918H35.7819Z" fill="white"/>
<path d="M21.683 58.5177L28.7671 44.8467H16.4879L30.5646 17.678C32.0096 14.8911 32.0096 11.5982 30.5646 8.81127L9.4601 49.5469C8.86094 50.7116 9.1147 52.2992 10.2425 53.0132H7.70491C5.87219 53.0132 4.68797 51.1137 5.51974 49.5053L28.5839 4.99144L25.9969 0L0.754661 48.7289C-1.56444 53.2073 1.74151 58.5177 6.85199 58.5177H17.7215H21.683ZM16.22 53.0063C14.4085 53.0063 13.2383 51.1276 14.056 49.54H22.3526L20.5551 53.0063H16.22Z" fill="white"/>
</g>
<path d="M67.3584 34.4082H71.7969V43.2998L80.1318 34.4082H85.9619L77.1143 43.2998L86.416 56H80.6152L73.9502 46.5664L71.7969 48.7783V56H67.3584V34.4082ZM93.4906 56H89.3158V34.4082H93.4906V56ZM106.981 48.2363C106.718 48.4023 106.449 48.5391 106.176 48.6465C105.912 48.7441 105.546 48.8369 105.077 48.9248L104.139 49.1006C103.261 49.2568 102.631 49.4473 102.25 49.6719C101.605 50.0527 101.283 50.6436 101.283 51.4443C101.283 52.1572 101.478 52.6748 101.869 52.9971C102.269 53.3096 102.753 53.4658 103.319 53.4658C104.218 53.4658 105.043 53.2021 105.795 52.6748C106.556 52.1475 106.952 51.1855 106.981 49.7891V48.2363ZM104.447 46.2881C105.219 46.1904 105.77 46.0684 106.102 45.9219C106.698 45.668 106.996 45.2725 106.996 44.7354C106.996 44.0811 106.766 43.6318 106.307 43.3877C105.858 43.1338 105.194 43.0068 104.315 43.0068C103.329 43.0068 102.631 43.251 102.221 43.7393C101.928 44.1006 101.732 44.5889 101.635 45.2041H97.6063C97.6941 43.8076 98.0848 42.6602 98.7781 41.7617C99.8816 40.3555 101.776 39.6523 104.462 39.6523C106.21 39.6523 107.763 39.999 109.12 40.6924C110.477 41.3857 111.156 42.6943 111.156 44.6182V51.9424C111.156 52.4502 111.166 53.0654 111.185 53.7881C111.215 54.335 111.298 54.7061 111.434 54.9014C111.571 55.0967 111.776 55.2578 112.05 55.3848V56H107.509C107.382 55.6777 107.294 55.375 107.245 55.0918C107.196 54.8086 107.157 54.4863 107.128 54.125C106.552 54.75 105.888 55.2822 105.136 55.7217C104.237 56.2393 103.221 56.498 102.089 56.498C100.643 56.498 99.4471 56.0879 98.4998 55.2676C97.5623 54.4375 97.0936 53.2656 97.0936 51.752C97.0936 49.7891 97.8504 48.3682 99.3641 47.4893C100.194 47.0107 101.415 46.6689 103.026 46.4639L104.447 46.2881ZM118.729 50.9023C118.817 51.6445 119.007 52.1719 119.3 52.4844C119.818 53.041 120.775 53.3193 122.171 53.3193C122.991 53.3193 123.641 53.1973 124.119 52.9531C124.608 52.709 124.852 52.3428 124.852 51.8545C124.852 51.3857 124.656 51.0293 124.266 50.7852C123.875 50.541 122.425 50.1211 119.915 49.5254C118.109 49.0762 116.834 48.5146 116.092 47.8408C115.35 47.1768 114.979 46.2197 114.979 44.9697C114.979 43.4951 115.555 42.2305 116.707 41.1758C117.869 40.1113 119.5 39.5791 121.6 39.5791C123.592 39.5791 125.213 39.9795 126.463 40.7803C127.723 41.5713 128.446 42.9434 128.631 44.8965H124.456C124.398 44.3594 124.246 43.9346 124.002 43.6221C123.543 43.0557 122.762 42.7725 121.658 42.7725C120.75 42.7725 120.101 42.9141 119.71 43.1973C119.329 43.4805 119.139 43.8125 119.139 44.1934C119.139 44.6719 119.344 45.0186 119.754 45.2334C120.164 45.458 121.614 45.8438 124.105 46.3906C125.765 46.7812 127.01 47.3721 127.84 48.1631C128.66 48.9639 129.071 49.9648 129.071 51.166C129.071 52.748 128.48 54.042 127.298 55.0479C126.126 56.0439 124.31 56.542 121.849 56.542C119.339 56.542 117.484 56.0146 116.282 54.96C115.091 53.8955 114.495 52.543 114.495 50.9023H118.729ZM131.135 43.1533V40.1797H133.362V35.7266H137.493V40.1797H140.086V43.1533H137.493V51.5908C137.493 52.2451 137.576 52.6553 137.742 52.8213C137.908 52.9775 138.416 53.0557 139.265 53.0557C139.392 53.0557 139.524 53.0557 139.661 53.0557C139.807 53.0459 139.949 53.0361 140.086 53.0264V56.1465L138.108 56.2197C136.135 56.2881 134.788 55.9463 134.065 55.1943C133.596 54.7158 133.362 53.9785 133.362 52.9824V43.1533H131.135ZM149.665 43.0508C148.698 43.0508 147.946 43.3535 147.409 43.959C146.882 44.5645 146.55 45.3848 146.413 46.4199H152.902C152.834 45.3164 152.497 44.4814 151.892 43.915C151.296 43.3389 150.554 43.0508 149.665 43.0508ZM149.665 39.6084C150.993 39.6084 152.189 39.8574 153.254 40.3555C154.318 40.8535 155.197 41.6396 155.891 42.7139C156.516 43.6611 156.921 44.7598 157.106 46.0098C157.214 46.7422 157.258 47.7969 157.238 49.1738H146.311C146.369 50.7754 146.872 51.8984 147.819 52.543C148.396 52.9434 149.089 53.1436 149.899 53.1436C150.759 53.1436 151.457 52.8994 151.994 52.4111C152.287 52.1475 152.546 51.7812 152.771 51.3125H157.033C156.926 52.2598 156.433 53.2217 155.554 54.1982C154.187 55.751 152.272 56.5273 149.812 56.5273C147.78 56.5273 145.988 55.873 144.436 54.5645C142.883 53.2559 142.106 51.127 142.106 48.1777C142.106 45.4141 142.805 43.2949 144.201 41.8203C145.607 40.3457 147.429 39.6084 149.665 39.6084ZM169.337 39.6523C169.415 39.6523 169.479 39.6572 169.528 39.667C169.586 39.667 169.708 39.6719 169.894 39.6816V43.959C169.63 43.9297 169.396 43.9102 169.191 43.9004C168.986 43.8906 168.82 43.8857 168.693 43.8857C167.013 43.8857 165.885 44.4326 165.309 45.5264C164.987 46.1416 164.826 47.0889 164.826 48.3682V56H160.621V40.0332H164.606V42.8164C165.25 41.752 165.812 41.0244 166.29 40.6338C167.072 39.9795 168.087 39.6523 169.337 39.6523Z" fill="white"/>
<defs>
<clipPath id="clip0_1551:11488">
<rect width="52" height="85" fill="white"/>
</clipPath>
</defs>
</svg>
