<svg width="300" height="320" viewBox="0 0 300 320" fill="none" xmlns="http://www.w3.org/2000/svg">
<path d="M0 38.88C0 24.9856 0 18.0384 2.78962 12.7697C5.04083 8.5179 8.5179 5.04083 12.7697 2.78962C18.0384 0 24.9856 0 38.88 0H261.118C275.012 0 281.96 0 287.228 2.78962C291.48 5.04083 294.957 8.5179 297.208 12.7697C299.998 18.0384 299.998 24.9856 299.998 38.88V281.12C299.998 295.014 299.998 301.962 297.208 307.23C294.957 311.482 291.48 314.959 287.228 317.21C281.96 320 275.012 320 261.118 320H38.88C24.9856 320 18.0384 320 12.7697 317.21C8.5179 314.959 5.04083 311.482 2.78962 307.23C0 301.962 0 295.014 0 281.12V38.88Z" fill="#6335E9"/>
<path fill-rule="evenodd" clip-rule="evenodd" d="M300 99.8359V296C300 309.255 289.255 320 276 320H62.4663C56.0819 268.323 68.5904 191.466 157.924 178.826C237.244 167.602 279.348 132.311 300 99.8359Z" fill="url(#paint0_linear_1598:11162)"/>
<defs>
<linearGradient id="paint0_linear_1598:11162" x1="251.482" y1="357.73" x2="48.0653" y2="192.728" gradientUnits="userSpaceOnUse">
<stop stop-color="#3501CC"/>
<stop offset="1" stop-color="#6335E9" stop-opacity="0.28"/>
</linearGradient>
</defs>
</svg>
