<svg width="377" height="564" viewBox="0 0 377 564" fill="none" xmlns="http://www.w3.org/2000/svg">
<path d="M0 38.88C0 24.9856 0 18.0384 2.78962 12.7697C5.04083 8.5179 8.5179 5.04083 12.7697 2.78962C18.0384 0 24.9856 0 38.88 0H337.119C351.013 0 357.96 0 363.229 2.78962C367.481 5.04083 370.958 8.5179 373.209 12.7697C375.999 18.0384 375.999 24.9856 375.999 38.88V525.12C375.999 539.014 375.999 545.962 373.209 551.23C370.958 555.482 367.481 558.959 363.229 561.21C357.96 564 351.013 564 337.119 564H38.88C24.9856 564 18.0384 564 12.7697 561.21C8.5179 558.959 5.04083 555.482 2.78962 551.23C0 545.962 0 539.014 0 525.12V38.88Z" fill="#6335E9"/>
<path fill-rule="evenodd" clip-rule="evenodd" d="M376.001 175.961V540.002C376.001 553.256 365.256 564.002 352.001 564.002H78.2907C70.289 472.921 85.9664 337.461 197.931 315.182C297.348 295.4 350.118 233.198 376.001 175.961Z" fill="url(#paint0_linear_1551:11461)"/>
<defs>
<linearGradient id="paint0_linear_1551:11461" x1="315.192" y1="630.501" x2="-1.97806" y2="447.551" gradientUnits="userSpaceOnUse">
<stop stop-color="#3501CC"/>
<stop offset="1" stop-color="#6335E9" stop-opacity="0.28"/>
</linearGradient>
</defs>
</svg>
