<svg width="300" height="320" viewBox="0 0 300 320" fill="none" xmlns="http://www.w3.org/2000/svg">
<rect width="300" height="320" rx="24" fill="url(#paint0_linear_1673:11465)"/>
<path fill-rule="evenodd" clip-rule="evenodd" d="M150.508 0L103.652 144.999L0 121.792V24C0 10.7452 10.7452 0 24 0H150.508Z" fill="url(#paint1_linear_1673:11465)" fill-opacity="0.6"/>
<path fill-rule="evenodd" clip-rule="evenodd" d="M225.999 0L188.947 114.661L0 72.3562V24C0 10.7451 10.7452 0 24 0H225.999Z" fill="url(#paint2_linear_1673:11465)" fill-opacity="0.6"/>
<path fill-rule="evenodd" clip-rule="evenodd" d="M184 318.008L205.472 267.999L299.697 283.877L299.697 294.008C299.697 307.263 288.952 318.008 275.697 318.008L184 318.008Z" fill="url(#paint3_linear_1673:11465)"/>
<defs>
<linearGradient id="paint0_linear_1673:11465" x1="258.76" y1="335.887" x2="8.62393" y2="-8.52787" gradientUnits="userSpaceOnUse">
<stop stop-color="#0AE29F"/>
<stop offset="1" stop-color="#01BA81"/>
</linearGradient>
<linearGradient id="paint1_linear_1673:11465" x1="48.3436" y1="137.602" x2="62.5093" y2="32.9393" gradientUnits="userSpaceOnUse">
<stop stop-color="#01BC82"/>
<stop offset="1" stop-color="#06CF91" stop-opacity="0"/>
</linearGradient>
<linearGradient id="paint2_linear_1673:11465" x1="145.749" y1="113.042" x2="55.6131" y2="-16.3661" gradientUnits="userSpaceOnUse">
<stop stop-color="#07AF7B" stop-opacity="0.6"/>
<stop offset="1" stop-color="#05C98C" stop-opacity="0"/>
</linearGradient>
<linearGradient id="paint3_linear_1673:11465" x1="270.377" y1="221.086" x2="238.155" y2="316.775" gradientUnits="userSpaceOnUse">
<stop stop-color="#07AF7B" stop-opacity="0.6"/>
<stop offset="1" stop-color="#05C98C" stop-opacity="0"/>
</linearGradient>
</defs>
</svg>
