<svg width="376" height="565" viewBox="0 0 376 565" fill="none" xmlns="http://www.w3.org/2000/svg">
<rect width="376" height="564" rx="34" fill="url(#paint0_linear_1673:11394)"/>
<path fill-rule="evenodd" clip-rule="evenodd" d="M271.944 0H346C362.569 0 376 13.4315 376 30V101.106C365.746 106.16 354.205 109 342 109C299.474 109 265 74.5259 265 32C265 20.5825 267.485 9.74536 271.944 0Z" fill="url(#paint1_linear_1673:11394)"/>
<path fill-rule="evenodd" clip-rule="evenodd" d="M1.25091e-05 508.69C10.5797 497.781 25.3936 491 41.7911 491C73.939 491 100 517.061 100 549.209C100 554.504 99.2932 559.633 97.9688 564.508L30 564.508C13.4315 564.508 8.80361e-06 551.076 1.02521e-05 534.508L1.25091e-05 508.69Z" fill="url(#paint2_linear_1673:11394)"/>
<path fill-rule="evenodd" clip-rule="evenodd" d="M376 149.591C347.646 178.829 307.945 197 264 197C177.844 197 108 127.156 108 41C108 26.8112 109.894 13.0648 113.444 0H346C362.569 0 376 13.4315 376 30V149.591Z" fill="url(#paint3_linear_1673:11394)"/>
<defs>
<linearGradient id="paint0_linear_1673:11394" x1="137.083" y1="-96.6257" x2="490.498" y2="186.788" gradientUnits="userSpaceOnUse">
<stop stop-color="#35219A"/>
<stop offset="1" stop-color="#1E1647"/>
</linearGradient>
<linearGradient id="paint1_linear_1673:11394" x1="376" y1="-29.5" x2="399.307" y2="94.1453" gradientUnits="userSpaceOnUse">
<stop stop-color="#35219A" stop-opacity="0"/>
<stop offset="1" stop-color="#1E1647"/>
</linearGradient>
<linearGradient id="paint2_linear_1673:11394" x1="32.8358" y1="437.456" x2="72.3881" y2="564.881" gradientUnits="userSpaceOnUse">
<stop stop-color="#1E1647"/>
<stop offset="1" stop-color="#1E1647" stop-opacity="0"/>
</linearGradient>
<linearGradient id="paint3_linear_1673:11394" x1="288" y1="340.5" x2="182" y2="-0.999958" gradientUnits="userSpaceOnUse">
<stop stop-color="#1E1647"/>
<stop offset="1" stop-color="#1E1647" stop-opacity="0"/>
</linearGradient>
</defs>
</svg>
