<svg width="375" height="564" viewBox="0 0 375 564" fill="none" xmlns="http://www.w3.org/2000/svg">
<rect width="375" height="564" rx="24" fill="url(#paint0_linear_1551:11510)"/>
<path fill-rule="evenodd" clip-rule="evenodd" d="M225.001 0L154.952 257.645L0 216.41V24C0 10.7452 10.7452 0 24 0H225.001Z" fill="url(#paint1_linear_1551:11510)" fill-opacity="0.6"/>
<path fill-rule="evenodd" clip-rule="evenodd" d="M337.857 0L282.468 203.726L0 128.558V24C0 10.7452 10.7452 0 24 0H337.857Z" fill="url(#paint2_linear_1551:11510)" fill-opacity="0.6"/>
<path fill-rule="evenodd" clip-rule="evenodd" d="M227.427 563.734L254.814 463L375 494.983L375 539.734C375 552.989 364.255 563.734 351 563.734L227.427 563.734Z" fill="url(#paint3_linear_1551:11510)"/>
<defs>
<linearGradient id="paint0_linear_1551:11510" x1="323.45" y1="592" x2="-140.027" y2="139.401" gradientUnits="userSpaceOnUse">
<stop stop-color="#0AE29F"/>
<stop offset="1" stop-color="#01BA81"/>
</linearGradient>
<linearGradient id="paint1_linear_1551:11510" x1="72.2709" y1="244.5" x2="101.968" y2="59.8993" gradientUnits="userSpaceOnUse">
<stop stop-color="#01BC82"/>
<stop offset="1" stop-color="#06CF91" stop-opacity="0"/>
</linearGradient>
<linearGradient id="paint2_linear_1551:11510" x1="217.887" y1="200.851" x2="50.1513" y2="-1.77092" gradientUnits="userSpaceOnUse">
<stop stop-color="#07AF7B" stop-opacity="0.6"/>
<stop offset="1" stop-color="#05C98C" stop-opacity="0"/>
</linearGradient>
<linearGradient id="paint3_linear_1551:11510" x1="337.602" y1="368.502" x2="248.635" y2="535.797" gradientUnits="userSpaceOnUse">
<stop stop-color="#07AF7B" stop-opacity="0.6"/>
<stop offset="1" stop-color="#05C98C" stop-opacity="0"/>
</linearGradient>
</defs>
</svg>
