<svg width="365" height="365" viewBox="0 0 365 365" fill="none" xmlns="http://www.w3.org/2000/svg">
<path d="M288.753 241.76C288.556 242.114 288.365 242.472 288.167 242.826C280.144 257.208 269.549 269.583 256.673 279.613C231.607 299.113 199.94 308.102 168.367 304.679C152.142 302.908 136.625 297.942 122.244 289.919C107.863 281.897 95.489 271.297 85.4566 258.426C65.9575 233.358 56.972 201.689 60.3999 170.116C62.1701 153.89 67.136 138.373 75.1584 123.992L65.1654 118.417C56.3927 134.143 50.9634 151.119 49.0245 168.874C45.2768 203.403 55.1061 238.037 76.4336 265.451C87.4096 279.541 100.948 291.134 116.673 299.906C132.397 308.678 149.374 314.108 167.129 316.047C201.659 319.795 236.293 309.965 263.706 288.638C277.796 277.662 289.389 264.124 298.161 248.399C298.359 248.045 298.556 247.691 298.748 247.334L288.753 241.76Z" fill="url(#paint0_linear_1429:13339)"/>
<path d="M288.412 241.96C288.609 241.606 288.813 241.255 289.011 240.901C297.034 226.519 301.999 211.003 303.769 194.778C307.195 163.205 298.209 131.538 278.711 106.469C268.681 93.5939 256.305 82.9983 241.924 74.9758C227.543 66.9533 212.023 61.9921 195.801 60.2163C164.227 56.7926 132.56 65.7823 107.494 85.2846C94.6176 95.314 84.022 107.691 75.9995 122.072L66.0064 116.497C74.7792 100.771 86.3723 87.234 100.462 76.2575C127.875 54.93 162.509 45.1007 197.039 48.8484C214.794 50.7864 231.771 56.2171 247.495 64.9893C263.22 73.7615 276.758 85.3552 287.734 99.4446C309.062 126.858 318.891 161.492 315.143 196.022C313.205 213.777 307.775 230.752 299.002 246.478C298.805 246.832 298.608 247.186 298.404 247.537L288.412 241.96Z" fill="url(#paint1_linear_1429:13339)"/>
<defs>
<linearGradient id="paint0_linear_1429:13339" x1="32.7333" y1="186.888" x2="312.317" y2="297.048" gradientUnits="userSpaceOnUse">
<stop offset="0.14" stop-color="#0AE29F" stop-opacity="0"/>
<stop offset="1" stop-color="#0AE29F"/>
</linearGradient>
<linearGradient id="paint1_linear_1429:13339" x1="107.232" y1="52.9322" x2="347.835" y2="232.967" gradientUnits="userSpaceOnUse">
<stop offset="0.14" stop-color="#0AE29F" stop-opacity="0"/>
<stop offset="1" stop-color="#0AE29F"/>
</linearGradient>
</defs>
</svg>
