<svg width="87" height="69" viewBox="0 0 87 69" fill="none" xmlns="http://www.w3.org/2000/svg">
<path d="M28.8 32.4L27.8362 32.1333L27.6055 32.967L28.3973 33.3153L28.8 32.4ZM34 63.4L34.6936 64.1203L34.7004 64.1138L34.7071 64.1071L34 63.4ZM6.2 63.2L5.49289 63.9071L5.49932 63.9135L5.50587 63.9198L6.2 63.2ZM1.8 41.4L0.829858 41.1575L0.829858 41.1575L1.8 41.4ZM6.2 29.4L7.12033 29.7911L7.12404 29.7824L7.12759 29.7736L6.2 29.4ZM17.8 0.599991V-0.400009H17.1247L16.8724 0.22638L17.8 0.599991ZM37.6 0.599991L38.5638 0.866697L38.9143 -0.400009H37.6V0.599991ZM76 32.4L75.0362 32.1333L74.8055 32.967L75.5973 33.3153L76 32.4ZM81.2 63.4L81.8936 64.1203L81.9004 64.1138L81.9071 64.1071L81.2 63.4ZM53.4 63.2L52.6929 63.9071L52.6993 63.9135L52.7059 63.9198L53.4 63.2ZM49 41.4L48.0299 41.1575L48.0299 41.1575L49 41.4ZM53.4 29.4L54.3203 29.7911L54.324 29.7824L54.3276 29.7736L53.4 29.4ZM65 0.599991V-0.400009H64.3247L64.0724 0.22638L65 0.599991ZM84.8 0.599991L85.7638 0.866697L86.1143 -0.400009H84.8V0.599991ZM28.3973 33.3153C31.5585 34.7062 34.0012 36.7787 35.7563 39.5369L37.4437 38.4631C35.4655 35.3546 32.7082 33.0271 29.2027 31.4847L28.3973 33.3153ZM35.7563 39.5369C37.5062 42.2867 38.4 45.5609 38.4 49.4H40.4C40.4 45.2391 39.4271 41.5799 37.4437 38.4631L35.7563 39.5369ZM38.4 49.4C38.4 54.9046 36.681 59.3048 33.2929 62.6929L34.7071 64.1071C38.519 60.2952 40.4 55.362 40.4 49.4H38.4ZM33.3064 62.6797C29.9157 65.9447 25.5752 67.6 20.2 67.6V69.6C26.0248 69.6 30.8843 67.7886 34.6936 64.1203L33.3064 62.6797ZM20.2 67.6C14.8362 67.6 10.4254 65.8853 6.89414 62.4802L5.50587 63.9198C9.44129 67.7147 14.3638 69.6 20.2 69.6V67.6ZM6.90711 62.4929C3.51428 59.1001 1.8 54.7639 1.8 49.4H-0.2C-0.2 55.2361 1.68572 60.0999 5.49289 63.9071L6.90711 62.4929ZM1.8 49.4C1.8 46.8176 2.12269 44.2323 2.77014 41.6425L0.829858 41.1575C0.143973 43.901 -0.2 46.6491 -0.2 49.4H1.8ZM2.77014 41.6425C3.41665 39.0565 4.85686 35.1169 7.12033 29.7911L5.27967 29.0088C3.00981 34.3497 1.51668 38.4102 0.829858 41.1575L2.77014 41.6425ZM7.12759 29.7736L18.7276 0.973602L16.8724 0.22638L5.27242 29.0264L7.12759 29.7736ZM17.8 1.59999L37.6 1.59999V-0.400009L17.8 -0.400009V1.59999ZM36.6362 0.333286L27.8362 32.1333L29.7638 32.6667L38.5638 0.866697L36.6362 0.333286ZM75.5973 33.3153C78.7585 34.7062 81.2012 36.7787 82.9563 39.5369L84.6437 38.4631C82.6655 35.3546 79.9082 33.0271 76.4027 31.4847L75.5973 33.3153ZM82.9563 39.5369C84.7063 42.2867 85.6 45.5609 85.6 49.4H87.6C87.6 45.2391 86.6271 41.5799 84.6437 38.4631L82.9563 39.5369ZM85.6 49.4C85.6 54.9046 83.881 59.3048 80.4929 62.6929L81.9071 64.1071C85.719 60.2952 87.6 55.362 87.6 49.4H85.6ZM80.5064 62.6797C77.1157 65.9447 72.7752 67.6 67.4 67.6V69.6C73.2248 69.6 78.0843 67.7886 81.8936 64.1203L80.5064 62.6797ZM67.4 67.6C62.0362 67.6 57.6254 65.8853 54.0941 62.4802L52.7059 63.9198C56.6413 67.7147 61.5638 69.6 67.4 69.6V67.6ZM54.1071 62.4929C50.7143 59.1001 49 54.7639 49 49.4H47C47 55.2361 48.8857 60.0999 52.6929 63.9071L54.1071 62.4929ZM49 49.4C49 46.8176 49.3227 44.2323 49.9701 41.6425L48.0299 41.1575C47.344 43.901 47 46.6491 47 49.4H49ZM49.9701 41.6425C50.6167 39.0565 52.0569 35.1169 54.3203 29.7911L52.4797 29.0088C50.2098 34.3497 48.7167 38.4102 48.0299 41.1575L49.9701 41.6425ZM54.3276 29.7736L65.9276 0.973602L64.0724 0.22638L52.4724 29.0264L54.3276 29.7736ZM65 1.59999L84.8 1.59999V-0.400009L65 -0.400009V1.59999ZM83.8362 0.333286L75.0362 32.1333L76.9638 32.6667L85.7638 0.866697L83.8362 0.333286Z" fill="#DEE2E6"/>
</svg>
