<svg width="34" height="34" viewBox="0 0 34 34" fill="none" xmlns="http://www.w3.org/2000/svg">
<g filter="url(#filter0_b_1588:10902)">
<circle cx="17" cy="17" r="17" fill="white" fill-opacity="0.2"/>
</g>
<path opacity="0.89" d="M20 7H14C13.2044 7 12.4413 7.33187 11.8787 7.92261C11.3161 8.51335 11 9.31457 11 10.15V24.85C11 25.6854 11.3161 26.4866 11.8787 27.0774C12.4413 27.6681 13.2044 28 14 28H20C20.7956 28 21.5587 27.6681 22.1213 27.0774C22.6839 26.4866 23 25.6854 23 24.85V10.15C23 9.31457 22.6839 8.51335 22.1213 7.92261C21.5587 7.33187 20.7956 7 20 7ZM17 26.425C16.8022 26.425 16.6089 26.3634 16.4444 26.248C16.28 26.1327 16.1518 25.9687 16.0761 25.7768C16.0004 25.585 15.9806 25.3738 16.0192 25.1702C16.0578 24.9665 16.153 24.7794 16.2929 24.6325C16.4327 24.4857 16.6109 24.3857 16.8049 24.3452C16.9989 24.3047 17.2 24.3255 17.3827 24.4049C17.5654 24.4844 17.7216 24.619 17.8315 24.7917C17.9414 24.9643 18 25.1673 18 25.375C18 25.6535 17.8946 25.9205 17.7071 26.1175C17.5196 26.3144 17.2652 26.425 17 26.425ZM22 22.75H12V10.15C12 9.59305 12.2107 9.0589 12.5858 8.66508C12.9609 8.27125 13.4696 8.05 14 8.05H20C20.5304 8.05 21.0391 8.27125 21.4142 8.66508C21.7893 9.0589 22 9.59305 22 10.15V22.75Z" fill="white"/>
<defs>
<filter id="filter0_b_1588:10902" x="-4" y="-4" width="42" height="42" filterUnits="userSpaceOnUse" color-interpolation-filters="sRGB">
<feFlood flood-opacity="0" result="BackgroundImageFix"/>
<feGaussianBlur in="BackgroundImage" stdDeviation="2"/>
<feComposite in2="SourceAlpha" operator="in" result="effect1_backgroundBlur_1588:10902"/>
<feBlend mode="normal" in="SourceGraphic" in2="effect1_backgroundBlur_1588:10902" result="shape"/>
</filter>
</defs>
</svg>
