<svg width="34" height="34" viewBox="0 0 34 34" fill="none" xmlns="http://www.w3.org/2000/svg">
<g filter="url(#filter0_b_1588:10903)">
<circle cx="17" cy="17" r="17" fill="white" fill-opacity="0.2"/>
</g>
<path opacity="0.8" fill-rule="evenodd" clip-rule="evenodd" d="M9.00038 25.0013L9.00036 25.0014H9L9.00038 25.0013ZM9.00038 25.0013L13.4876 23.83C14.7289 24.5026 16.1196 24.8551 17.5328 24.8553H17.5366C22.2018 24.8553 25.9995 21.0759 26.0015 16.4307C26.0027 14.1797 25.1228 12.0632 23.5247 10.4707C21.9266 8.87831 19.8011 8.001 17.5366 8C12.8707 8 9.07323 11.7791 9.0713 16.4242C9.06952 17.9026 9.45932 19.3553 10.2014 20.6358L9.00038 25.0013ZM14.8547 12.3965C15.0108 12.4029 15.1836 12.41 15.3478 12.7734L15.3479 12.774C15.4599 13.022 15.6482 13.4839 15.7985 13.8526C15.9097 14.1251 16 14.3466 16.0233 14.393C16.0781 14.5021 16.1146 14.6299 16.0415 14.7751C16.0305 14.7971 16.0203 14.8179 16.0105 14.8377C15.9558 14.9487 15.9156 15.0304 15.8226 15.1386C15.7864 15.1808 15.7488 15.2262 15.7113 15.2717C15.6356 15.3634 15.5598 15.4553 15.494 15.5206C15.384 15.6293 15.27 15.7473 15.3978 15.9656C15.5256 16.184 15.9653 16.898 16.6167 17.476C17.3176 18.0982 17.9263 18.361 18.2345 18.4941C18.2944 18.5199 18.3429 18.5409 18.3786 18.5587C18.5977 18.6677 18.7254 18.6496 18.8534 18.5038C18.9815 18.358 19.4009 17.867 19.547 17.6486C19.6931 17.4303 19.8392 17.4666 20.0401 17.5393C20.2409 17.6121 21.318 18.1398 21.5372 18.2489C21.5803 18.2703 21.6205 18.2897 21.6579 18.3076C21.8103 18.3807 21.9132 18.4302 21.9572 18.5034C22.012 18.5946 22.012 19.0308 21.8294 19.5404C21.6467 20.05 20.7522 20.541 20.3504 20.5773C20.3117 20.5808 20.2732 20.5853 20.2336 20.59C19.8624 20.6335 19.3937 20.6884 17.7212 20.0316C15.6623 19.2233 14.305 17.22 14.0252 16.8071C14.0024 16.7734 13.9867 16.7502 13.9784 16.7393L13.9765 16.7366C13.8598 16.5816 13.0836 15.5503 13.0836 14.4834C13.0836 13.4793 13.5793 12.9528 13.8075 12.7104C13.8232 12.6937 13.8377 12.6784 13.8506 12.6643C14.0513 12.446 14.2889 12.3914 14.4348 12.3914L14.4557 12.3914C14.5947 12.3914 14.7331 12.3914 14.8547 12.3965Z" fill="white"/>
<defs>
<filter id="filter0_b_1588:10903" x="-4" y="-4" width="42" height="42" filterUnits="userSpaceOnUse" color-interpolation-filters="sRGB">
<feFlood flood-opacity="0" result="BackgroundImageFix"/>
<feGaussianBlur in="BackgroundImage" stdDeviation="2"/>
<feComposite in2="SourceAlpha" operator="in" result="effect1_backgroundBlur_1588:10903"/>
<feBlend mode="normal" in="SourceGraphic" in2="effect1_backgroundBlur_1588:10903" result="shape"/>
</filter>
</defs>
</svg>
